<svg width="74" height="55" viewBox="0 0 74 55" fill="none" xmlns="http://www.w3.org/2000/svg">
<path d="M8.95659 4.26017V12.3518C8.95659 13.2727 8.76407 14.0466 8.37997 14.6735C7.99493 15.3013 7.47331 15.7793 6.81323 16.1075C6.15315 16.4365 5.41436 16.6044 4.59779 16.612H0.409704C0.136568 16.612 0 16.4603 0 16.1568V0.466608C0 0.155536 0.136568 0 0.409704 0H4.57503C5.40677 0.00758712 6.15315 0.176401 6.81323 0.504543C7.47331 0.833635 7.99493 1.31162 8.37997 1.93851C8.76407 2.56634 8.95659 3.34023 8.95659 4.26017ZM5.76242 12.2532V4.39294C5.76242 3.8903 5.63438 3.51853 5.37927 3.27764C5.1232 3.03769 4.79126 2.91725 4.38156 2.91725H3.19418V13.7175H4.44226C4.84153 13.7023 5.16114 13.5572 5.40203 13.2813C5.64197 13.0062 5.76242 12.6629 5.76242 12.2532Z" fill="#FFBD59"/>
<path d="M10.375 16.1909V8.29273C10.375 7.53402 10.5002 6.88911 10.7506 6.35802C11.0028 5.82502 11.3367 5.39256 11.7521 5.06062C12.1694 4.72679 12.6255 4.48305 13.1215 4.32846C13.6166 4.17198 14.105 4.09326 14.5859 4.09326C14.859 4.09326 15.0999 4.0999 15.3104 4.11223C15.5229 4.12266 15.7173 4.14827 15.8946 4.1881C16.127 4.25449 16.2436 4.41097 16.2436 4.6585V6.38457C16.2436 6.5439 16.1848 6.66055 16.0691 6.73358C15.9525 6.80471 15.8226 6.8398 15.6784 6.8398H15.0676C14.5688 6.8398 14.1686 7.00671 13.8651 7.34055C13.5616 7.67248 13.4098 8.12581 13.4098 8.70244V16.0468C13.4098 16.2573 13.3473 16.4034 13.224 16.4868C13.0997 16.5703 12.9821 16.612 12.8712 16.612H10.7316C10.6273 16.612 10.5419 16.5769 10.4736 16.5058C10.4072 16.4328 10.375 16.3275 10.375 16.1909Z" fill="#FFBD59"/>
<path d="M16.9268 12.5908C16.9268 11.9516 17.0463 11.4016 17.2871 10.9406C17.5271 10.4807 17.8448 10.1023 18.2393 9.80636C18.6358 9.51046 19.072 9.29044 19.5481 9.14628C20.0261 9.00213 20.4965 8.93005 20.9593 8.93005H22.2681V8.18651C22.2757 7.74646 22.1524 7.39935 21.9001 7.14328C21.6497 6.88532 21.2675 6.75634 20.7545 6.75634C20.3068 6.75634 19.9388 6.82747 19.6505 6.96878C19.3622 7.10819 19.1175 7.25709 18.9184 7.41642C18.8141 7.51316 18.7069 7.56057 18.5959 7.56057C18.4745 7.56057 18.374 7.50557 18.2962 7.39366L17.4085 6.14558C17.327 6.03462 17.2871 5.90089 17.2871 5.74346C17.2871 5.58698 17.3829 5.43239 17.5755 5.28065C17.8638 5.06631 18.1729 4.86904 18.5049 4.68885C18.8359 4.50676 19.2219 4.3626 19.6619 4.25638C20.1039 4.14827 20.6217 4.09326 21.2135 4.09326C21.7493 4.09326 22.2614 4.16155 22.7499 4.29811C23.2373 4.43279 23.6717 4.65755 24.0511 4.97337C24.4304 5.29013 24.7301 5.71501 24.9501 6.248C25.1702 6.7791 25.2802 7.43728 25.2802 8.22065V16.1682C25.2802 16.3199 25.2328 16.4328 25.1398 16.5058C25.0488 16.5769 24.9672 16.612 24.897 16.612H23.6603C23.4678 16.612 23.3303 16.5741 23.2468 16.4982C23.1634 16.4223 23.0847 16.281 23.0116 16.0733L22.9168 15.3146C22.8532 15.5877 22.6987 15.8448 22.454 16.0847C22.2112 16.3256 21.9077 16.5191 21.5435 16.6651C21.1793 16.814 20.7886 16.8889 20.3713 16.8889C19.9787 16.8889 19.5804 16.8216 19.1763 16.6879C18.7742 16.557 18.4025 16.3417 18.061 16.043C17.7215 15.7423 17.4474 15.344 17.2378 14.848C17.0301 14.3529 16.9268 13.7403 16.9268 13.0119V12.5908ZM21.3425 11.3428C21.1272 11.3428 20.91 11.3873 20.69 11.4755C20.4699 11.5647 20.2879 11.705 20.1437 11.8966C19.9995 12.0863 19.9275 12.3424 19.9275 12.6629V12.9512C19.9275 13.3439 20.0375 13.6587 20.2575 13.8958C20.4775 14.131 20.744 14.2486 21.0579 14.2486C21.2571 14.2486 21.4487 14.1898 21.6308 14.0703C21.8148 13.9489 21.9665 13.7507 22.086 13.4747C22.2074 13.1969 22.2681 12.8336 22.2681 12.386V11.3428H21.3425Z" fill="#FFBD59"/>
<path d="M16.5677 45.3513C15.3737 45.3513 14.3257 45.1266 13.4229 44.6761C12.5219 44.2237 11.7774 43.6196 11.1885 42.8628C10.6014 42.1041 10.1585 41.2571 9.86073 40.3211C9.56198 39.3831 9.41309 38.4376 9.41309 37.4835V28.4662C9.41309 26.9014 9.6682 25.4845 10.1794 24.2174C10.6896 22.9485 11.4939 21.9394 12.5921 21.1902C13.6922 20.439 15.1357 20.0635 16.9243 20.0635C17.8092 20.0635 18.6732 20.2683 19.5153 20.678C20.3594 21.0858 21.1399 21.6378 21.856 22.3358L22.1594 21.3154C22.3311 20.8051 22.7067 20.5491 23.2861 20.5491H26.1199C26.357 20.5491 26.5486 20.6173 26.6927 20.7539C26.8388 20.8905 26.9128 21.1029 26.9128 21.3912V44.2284C26.9128 46.2039 26.67 47.8589 26.1844 49.1942C25.6988 50.5314 25.0293 51.5965 24.1776 52.3884C23.3279 53.1794 22.3529 53.7503 21.2528 54.0993C20.1545 54.4483 18.9928 54.6228 17.7665 54.6228C16.5241 54.6228 15.2722 54.473 14.0109 54.1752C12.7514 53.8793 11.602 53.3643 10.5625 52.6312C10.1377 52.3429 9.91573 52.0565 9.89866 51.7738C9.88349 51.4931 9.9347 51.2427 10.0542 51.0227L11.3554 48.1624C11.509 47.8712 11.7139 47.7261 11.9699 47.7261C12.0534 47.7261 12.1454 47.747 12.2469 47.7906C12.3502 47.8333 12.4536 47.8892 12.5579 47.9575C13.0511 48.3312 13.6808 48.6593 14.4471 48.94C15.2134 49.2208 16.0385 49.3611 16.9243 49.3611C17.6043 49.3611 18.2085 49.2331 18.7377 48.978C19.2659 48.7219 19.6832 48.2923 19.9895 47.6882C20.2949 47.0831 20.4485 46.2713 20.4485 45.2489V44.0729C19.9193 44.4655 19.3276 44.7766 18.6732 45.0061C18.0178 45.2366 17.316 45.3513 16.5677 45.3513ZM15.8773 37.4835C15.8773 38.081 16.086 38.5969 16.5032 39.0313C16.9205 39.4637 17.427 39.68 18.0245 39.68C18.7908 39.68 19.3864 39.4334 19.8112 38.9402C20.2361 38.4471 20.4485 37.8591 20.4485 37.1762V28.0337C20.4305 27.4192 20.2096 26.8833 19.7847 26.4253C19.3598 25.9653 18.7889 25.7348 18.0738 25.7348C17.4763 25.7348 16.9604 25.953 16.526 26.3873C16.0935 26.8198 15.8773 27.3348 15.8773 27.9313V37.4835Z" fill="#FF914D"/>
<path d="M29.2471 18.9683V14.4654C29.2471 14.0614 29.3533 13.7626 29.5657 13.5701C29.7801 13.3757 29.9792 13.278 30.1613 13.278H31.9557V8.62709C31.9557 8.28378 32.0164 8.01538 32.1378 7.82286C32.2592 7.62844 32.4811 7.49092 32.8054 7.40936L38.492 5.7364C38.5546 5.71649 38.6475 5.70605 38.7689 5.70605C39.3759 5.70605 39.6794 6.04178 39.6794 6.71135V13.278H42.7521C43.3183 13.278 43.6019 13.6536 43.6019 14.4047V18.9683C43.6019 19.2927 43.5156 19.5601 43.3439 19.7726C43.1713 19.985 42.9437 20.0912 42.6611 20.0912H39.6794V34.9051C39.6794 35.7548 39.8814 36.4092 40.2863 36.8663C40.6932 37.3216 41.4547 37.5492 42.57 37.5492H43.086C43.5308 37.5492 43.7935 37.682 43.875 37.9475C43.9585 38.2112 44.0002 38.454 44.0002 38.6759V43.4785C44.0002 43.6834 43.9225 43.8977 43.7688 44.1196C43.6171 44.3425 43.1362 44.4535 42.3273 44.4535H40.4115C39.2355 44.4535 38.1354 44.3122 37.1111 44.0286C36.0869 43.746 35.1887 43.2642 34.4177 42.5832C33.6485 41.9032 33.0454 40.9748 32.6082 39.7988C32.1729 38.6228 31.9557 37.1433 31.9557 35.3603V20.0912H30.1613C29.9991 20.0912 29.8057 19.9954 29.5809 19.8029C29.358 19.6113 29.2471 19.3325 29.2471 18.9683Z" fill="#FF914D"/>
<path d="M61.4187 18.6423L61.0897 24.2475L57.9274 17.8937L60.3227 24.3648L56.2799 20.77C54.6063 19.2828 55.0335 16.5408 57.0959 15.671C57.1304 15.6564 57.1642 15.6419 57.1987 15.628C59.2849 14.7698 61.5514 16.3904 61.4187 18.6423Z" fill="#FF914D"/>
<path d="M70.6679 26.7303L65.0619 26.4012L71.4165 23.239L64.9461 25.6335L68.5402 21.5907C70.0274 19.9179 72.7694 20.3443 73.6399 22.4075C73.6537 22.4413 73.6683 22.4758 73.6829 22.5103C74.5412 24.5965 72.9197 26.863 70.6679 26.7303Z" fill="#FF914D"/>
<path d="M67.7195 20.77L63.5218 24.5021L65.779 17.7726L62.8974 24.0419L62.5799 18.6423C62.448 16.3904 64.7136 14.7698 66.7999 15.628C66.8344 15.6419 66.8689 15.6564 66.9034 15.671C68.9658 16.5408 69.3923 19.2828 67.7195 20.77Z" fill="#FF914D"/>
<path d="M52.461 23.5313L58.7296 26.4129L53.3308 26.7304C51.0789 26.8631 49.4583 24.5966 50.3165 22.5104C50.3303 22.4759 50.3449 22.4414 50.3595 22.4076C51.2293 20.3444 53.9712 19.918 55.4584 21.5915L59.1906 25.7885L52.461 23.5313Z" fill="#FF914D"/>
<path d="M66.9034 38.9512C66.8689 38.9658 66.8344 38.9804 66.7999 38.9942C64.7136 39.8524 62.448 38.2318 62.5799 35.9799L62.9089 30.374L66.0712 36.7285L63.6767 30.2574L67.7195 33.8523C69.3923 35.3395 68.9658 38.0815 66.9034 38.9512Z" fill="#FF914D"/>
<path d="M73.6829 32.1118C73.6683 32.1463 73.6537 32.1808 73.6399 32.2153C72.7694 34.2778 70.0274 34.7042 68.5402 33.0314L64.808 28.8329L71.5376 31.0909L65.269 28.2094L70.6678 27.8918C72.9197 27.7591 74.5411 30.0256 73.6829 32.1118Z" fill="#FF914D"/>
<path d="M57.1988 38.994C57.1643 38.9802 57.1305 38.9656 57.096 38.951C55.0335 38.0813 54.6063 35.3393 56.2799 33.8521L60.4777 30.1199L58.2204 36.8495L61.102 30.5816L61.4188 35.9797C61.5514 38.2316 59.285 39.8523 57.1988 38.994Z" fill="#FF914D"/>
<path d="M59.0525 28.9886L55.4584 33.0314C53.9712 34.7042 51.2293 34.2778 50.3595 32.2153C50.3449 32.1808 50.3303 32.1463 50.3165 32.1118C49.4583 30.0256 51.0789 27.7591 53.3308 27.8918L58.9367 28.2209L52.5822 31.3832L59.0525 28.9886Z" fill="#FF914D"/>
</svg>
