<svg width="215" height="86" viewBox="0 0 215 86" fill="none" xmlns="http://www.w3.org/2000/svg">
<path d="M12.5084 5.94912V17.2481C12.5084 18.5338 12.2387 19.6179 11.7021 20.4951C11.1628 21.3667 10.4328 22.0314 9.51206 22.489C8.58864 22.9466 7.55626 23.1836 6.41765 23.1972H0.566583C0.187953 23.1972 0 22.9875 0 22.5653V0.65375C0 0.217917 0.187953 0 0.566583 0H6.38496C7.54536 0.0163434 8.58864 0.250604 9.51206 0.708229C10.4328 1.16585 11.1628 1.83595 11.7021 2.71306C12.2387 3.58473 12.5084 4.66342 12.5084 5.94912ZM8.04113 17.1174V6.13435C8.04113 5.43157 7.86134 4.9113 7.50723 4.57625C7.15039 4.24393 6.69004 4.07504 6.12346 4.07504H4.4564V19.1549H6.19973C6.75814 19.1331 7.20487 18.9315 7.53992 18.5447C7.87224 18.1606 8.04113 17.6839 8.04113 17.1174Z" fill="#FFBD59"/>
<path d="M14.4805 22.6089V11.5823C14.4805 10.5227 14.6548 9.62105 15.0035 8.88013C15.3576 8.13376 15.8261 7.52905 16.409 7.07142C16.9892 6.60835 17.6239 6.26513 18.3158 6.04721C19.0131 5.8293 19.6941 5.72034 20.3642 5.72034C20.7401 5.72034 21.0779 5.72851 21.3775 5.74213C21.6744 5.75847 21.9468 5.79388 22.1947 5.85109C22.5134 5.93825 22.6741 6.15617 22.6741 6.50484V8.92371C22.6741 9.14163 22.5924 9.30234 22.4344 9.40313C22.2737 9.50664 22.0912 9.55567 21.8896 9.55567H21.0398C20.3424 9.55567 19.7786 9.78993 19.3509 10.253C18.9287 10.7188 18.7189 11.3508 18.7189 12.1489V22.4128C18.7189 22.7042 18.6318 22.9085 18.4574 23.0229C18.2886 23.1401 18.1251 23.1973 17.9671 23.1973H14.9817C14.8346 23.1973 14.7147 23.1482 14.6221 23.0447C14.5268 22.9439 14.4805 22.7996 14.4805 22.6089Z" fill="#FFBD59"/>
<path d="M23.635 17.5859C23.635 16.6924 23.8012 15.927 24.1362 15.2869C24.4685 14.6413 24.9125 14.1101 25.4655 13.6961C26.0157 13.282 26.6232 12.977 27.2851 12.7808C27.9525 12.5793 28.6144 12.4758 29.2682 12.4758H31.0878V11.4298C31.1014 10.8196 30.9298 10.3374 30.5757 9.98061C30.227 9.61832 29.6958 9.43582 28.9849 9.43582C28.3529 9.43582 27.8354 9.53388 27.4377 9.73C27.0372 9.92613 26.6967 10.1386 26.4134 10.362C26.2664 10.4927 26.1193 10.5581 25.9667 10.5581C25.7978 10.5581 25.6562 10.4818 25.5418 10.3293L24.2997 8.58594C24.1907 8.42795 24.1362 8.23727 24.1362 8.01936C24.1362 7.80144 24.2697 7.58897 24.5394 7.3765C24.9371 7.07959 25.3702 6.80447 25.836 6.54842C26.299 6.29509 26.8384 6.09624 27.4486 5.94915C28.0642 5.79661 28.7887 5.72034 29.6168 5.72034C30.3632 5.72034 31.0796 5.81568 31.7633 6.00363C32.4443 6.19431 33.0517 6.51028 33.5829 6.95157C34.1114 7.39557 34.5308 7.98667 34.8359 8.72759C35.141 9.4685 35.2936 10.3892 35.2936 11.4842V22.5762C35.2936 22.7887 35.2282 22.9439 35.0974 23.0447C34.9721 23.1482 34.8604 23.1973 34.7597 23.1973H33.0381C32.7684 23.1973 32.575 23.1482 32.4606 23.0447C32.3435 22.9358 32.2345 22.7369 32.1338 22.4454L31.9921 21.3885C31.9049 21.7672 31.6898 22.124 31.3493 22.4563C31.006 22.7914 30.5811 23.0611 30.0744 23.2626C29.5651 23.4724 29.0203 23.5786 28.4401 23.5786C27.8953 23.5786 27.3396 23.486 26.773 23.3062C26.2119 23.1264 25.6943 22.8241 25.2149 22.4019C24.7409 21.9824 24.3596 21.4267 24.0708 20.7348C23.7794 20.0456 23.635 19.193 23.635 18.1743V17.5859ZM29.8021 15.8426C29.497 15.8426 29.1919 15.9052 28.8868 16.0278C28.5817 16.1531 28.3257 16.3492 28.1241 16.6162C27.9198 16.8777 27.819 17.2345 27.819 17.684V18.0871C27.819 18.6319 27.9716 19.0732 28.2766 19.4055C28.5872 19.7324 28.9631 19.8958 29.3989 19.8958C29.674 19.8958 29.9383 19.8141 30.1943 19.6452C30.4558 19.4791 30.6683 19.2039 30.8372 18.8171C31.0033 18.4331 31.0878 17.9291 31.0878 17.3026V15.8426H29.8021Z" fill="#FFBD59"/>
<path d="M36.875 59.0048C36.875 57.9752 37.0657 57.0926 37.4525 56.3571C37.8366 55.6162 38.3459 55.0115 38.9779 54.5375C39.6153 54.0663 40.3181 53.7149 41.0808 53.4806C41.8435 53.2491 42.598 53.132 43.3471 53.132H45.4391V51.9443C45.4527 51.2334 45.2566 50.675 44.8507 50.2664C44.4503 49.8523 43.8402 49.6453 43.0202 49.6453C42.3011 49.6453 41.7073 49.7597 41.2442 49.9831C40.7866 50.2092 40.3944 50.4516 40.0675 50.7131C39.8986 50.8656 39.7297 50.9419 39.5554 50.9419C39.3593 50.9419 39.1985 50.852 39.076 50.6695L37.6486 48.6647C37.5179 48.4904 37.4525 48.2806 37.4525 48.0327C37.4525 47.7794 37.6077 47.5288 37.921 47.2809C38.3786 46.9404 38.8717 46.6244 39.4028 46.333C39.9395 46.0442 40.5605 45.81 41.266 45.6356C41.9688 45.4613 42.7969 45.3741 43.7503 45.3741C44.6056 45.3741 45.4228 45.4831 46.2018 45.701C46.9863 45.9189 47.6837 46.2839 48.2938 46.7906C48.904 47.3 49.3834 47.9837 49.7321 48.839C50.0862 49.6889 50.266 50.7431 50.266 51.9988V64.736C50.266 64.9758 50.1924 65.1555 50.0481 65.2699C49.901 65.3871 49.7702 65.4443 49.6558 65.4443H47.6728C47.3595 65.4443 47.1334 65.3843 46.9972 65.259C46.8665 65.1365 46.7466 64.9104 46.6377 64.5835L46.4742 63.3632C46.3707 63.799 46.1256 64.2103 45.7333 64.5944C45.3465 64.9812 44.8616 65.2917 44.2733 65.5314C43.6903 65.7711 43.0666 65.891 42.3992 65.891C41.7727 65.891 41.1353 65.782 40.4815 65.5641C39.8332 65.3544 39.2394 65.0084 38.6946 64.529C38.1498 64.0496 37.7085 63.4149 37.3762 62.6223C37.0412 61.8241 36.875 60.8408 36.875 59.6695V59.0048ZM43.9573 57C43.6086 57 43.2545 57.0735 42.9004 57.2179C42.5517 57.3568 42.2603 57.5775 42.0287 57.8826C41.8026 58.1876 41.691 58.599 41.691 59.1138V59.5714C41.691 60.2034 41.8653 60.71 42.214 61.0859C42.5681 61.4646 42.9985 61.6525 43.4997 61.6525C43.8184 61.6525 44.1235 61.5599 44.4149 61.3692C44.7118 61.1731 44.9543 60.8544 45.1449 60.4104C45.3411 59.9691 45.4391 59.3862 45.4391 58.6671V57H43.9573Z" fill="#FFBD59"/>
<path d="M52.791 39.4686C52.791 39.0328 53.0089 38.8149 53.4448 38.8149H57.0622C57.4681 38.8149 57.6723 39.0328 57.6723 39.4686V46.3221C58.1354 46.0252 58.623 45.7937 59.1324 45.6248C59.6472 45.4586 60.1675 45.3742 60.6905 45.3742C61.445 45.3742 62.1451 45.5322 62.7934 45.8427C63.4471 46.1478 64.0083 46.5727 64.4822 47.1175C64.9535 47.6623 65.3212 48.2915 65.5827 49.0025C65.8497 49.7162 65.9859 50.4816 65.9859 51.3015V59.615C65.9859 60.7918 65.7788 61.8487 65.3648 62.7857C64.9562 63.7228 64.346 64.4637 63.5343 65.0085C62.7198 65.5451 61.7147 65.8148 60.5162 65.8148C59.6935 65.8148 58.9581 65.6404 58.3043 65.2918C57.6506 64.9431 57.0785 64.4909 56.5937 63.9298L56.4411 64.6707C56.3376 64.9976 56.2341 65.21 56.1251 65.3027C56.0162 65.398 55.8527 65.4443 55.6348 65.4443H53.4448C53.0089 65.4443 52.791 65.2346 52.791 64.8123V39.4686ZM59.383 49.6453C58.86 49.6453 58.4405 49.8251 58.13 50.1792C57.8249 50.5361 57.6723 50.9256 57.6723 51.3451V59.822C57.6723 60.2579 57.8276 60.6556 58.1409 61.0097C58.4596 61.3665 58.8736 61.5436 59.383 61.5436C59.9114 61.5436 60.3309 61.3665 60.636 61.0097C60.9411 60.6556 61.0936 60.2579 61.0936 59.822V51.3669C61.0936 50.931 60.9411 50.5361 60.636 50.1792C60.3309 49.8251 59.9114 49.6453 59.383 49.6453Z" fill="#FFBD59"/>
<path d="M68.0935 64.7687V52.1078C68.0935 50.8956 68.2951 49.8632 68.7037 49.0134C69.1095 48.158 69.6434 47.4634 70.3054 46.9322C70.9727 46.3956 71.7028 46.0034 72.4954 45.7555C73.2935 45.5022 74.078 45.3741 74.8489 45.3741C75.2848 45.3741 75.6716 45.385 76.0148 45.4068C76.3553 45.4286 76.6685 45.4722 76.9518 45.5376C77.3223 45.6411 77.5075 45.8862 77.5075 46.2785V49.0569C77.5075 49.313 77.4122 49.4982 77.2242 49.6126C77.0417 49.7298 76.8347 49.787 76.6032 49.787H75.6225C74.8217 49.787 74.1788 50.0539 73.694 50.5824C73.2064 51.1135 72.9639 51.8408 72.9639 52.7615V64.5399C72.9639 64.875 72.8604 65.1119 72.6589 65.2481C72.4627 65.3789 72.2775 65.4443 72.1032 65.4443H68.671C68.5021 65.4443 68.3659 65.3871 68.2569 65.2699C68.148 65.1555 68.0935 64.9866 68.0935 64.7687Z" fill="#FFBD59"/>
<path d="M79.8938 45.7446H83.4132C83.6011 45.7446 83.7673 45.8045 83.9144 45.9189C84.0669 46.0361 84.1432 46.1777 84.1432 46.3439V64.8123C84.1432 65.0166 84.0724 65.1719 83.9362 65.2808C83.8054 65.3898 83.6311 65.4443 83.4132 65.4443H79.8938C79.458 65.4443 79.2401 65.2345 79.2401 64.8123V46.3439C79.2401 46.1641 79.3054 46.017 79.4362 45.908C79.5724 45.7991 79.7249 45.7446 79.8938 45.7446ZM84.2522 40.6889V43.3366C84.2522 43.7016 84.1595 43.9522 83.9798 44.0884C83.8054 44.2192 83.5657 44.2846 83.2606 44.2846H80.1444C79.8175 44.2846 79.5506 44.2192 79.349 44.0884C79.1447 43.9577 79.0439 43.7153 79.0439 43.3584V40.6672C79.0439 40.3702 79.1229 40.1278 79.2837 39.9371C79.4416 39.741 79.7304 39.6429 80.1444 39.6429H83.2606C83.6147 39.6429 83.8708 39.7356 84.0233 39.9153C84.1759 40.0978 84.2522 40.3566 84.2522 40.6889Z" fill="#FFBD59"/>
<path d="M86.511 59.9637V51.2034C86.511 50.3971 86.6771 49.6453 87.0122 48.948C87.3527 48.2506 87.8212 47.635 88.4178 47.0957C89.0116 46.5509 89.7062 46.1314 90.4989 45.8318C91.297 45.5267 92.1469 45.3741 93.0485 45.3741C93.9692 45.3741 94.8136 45.5267 95.5763 45.8318C96.339 46.1314 96.9982 46.5509 97.5594 47.0957C98.1178 47.635 98.5454 48.2506 98.8451 48.948C99.1502 49.6453 99.3027 50.3971 99.3027 51.2034V55.9758C99.3027 56.1937 99.2291 56.368 99.0848 56.4988C98.9459 56.6295 98.7688 56.6949 98.5509 56.6949H91.3705V59.9637C91.3705 60.3859 91.5367 60.7754 91.8717 61.1295C92.2041 61.4782 92.6344 61.6525 93.1574 61.6525C93.7077 61.6525 94.1326 61.4727 94.4323 61.1077C94.7292 60.7454 94.879 60.3505 94.879 59.9201V59.3644C94.879 59.25 94.9226 59.1438 95.0097 59.0484C95.0969 58.9558 95.2304 58.9068 95.4129 58.9068H98.7579C98.9104 58.9068 99.0303 58.9449 99.1175 59.0157C99.2101 59.0811 99.2591 59.2119 99.2591 59.408V59.9637C99.2591 61.0396 98.9976 62.0203 98.4746 62.9055C97.9571 63.7936 97.2325 64.5018 96.2954 65.0302C95.3584 65.5532 94.2743 65.8147 93.0485 65.8147C92.1469 65.8147 91.297 65.6649 90.4989 65.368C89.7062 65.0629 89.0116 64.6462 88.4178 64.115C87.8212 63.5784 87.3527 62.9546 87.0122 62.2409C86.6771 61.5299 86.511 60.77 86.511 59.9637ZM91.3705 51.247V53.4044H94.879V51.2688C94.879 50.8193 94.721 50.4244 94.4105 50.0811C94.1054 49.7325 93.6859 49.5581 93.1574 49.5581C92.6344 49.5581 92.2041 49.7325 91.8717 50.0811C91.5367 50.4244 91.3705 50.8112 91.3705 51.247Z" fill="#FFBD59"/>
<path d="M101.592 59.6913V39.4686C101.592 39.0328 101.809 38.8149 102.245 38.8149H105.841C106.26 38.8149 106.473 39.0328 106.473 39.4686V59.408C106.473 59.9473 106.598 60.3614 106.854 60.6501C107.116 60.9334 107.598 61.0751 108.303 61.0751H108.63C108.919 61.0751 109.091 61.1595 109.142 61.3257C109.2 61.4946 109.23 61.6498 109.23 61.7942V64.8232C109.23 64.954 109.175 65.0929 109.066 65.2373C108.963 65.3762 108.658 65.4443 108.151 65.4443H106.931C106.203 65.4443 105.514 65.3571 104.86 65.1828C104.212 65.003 103.643 64.6979 103.15 64.2675C102.662 63.8317 102.281 63.2433 102.006 62.5024C101.728 61.7561 101.592 60.819 101.592 59.6913Z" fill="#FFBD59"/>
<path d="M110.663 59.0048C110.663 57.9752 110.854 57.0926 111.24 56.3571C111.624 55.6162 112.134 55.0115 112.766 54.5375C113.403 54.0663 114.106 53.7149 114.869 53.4806C115.631 53.2491 116.386 53.132 117.135 53.132H119.227V51.9443C119.241 51.2334 119.044 50.675 118.639 50.2664C118.238 49.8523 117.628 49.6453 116.808 49.6453C116.089 49.6453 115.495 49.7597 115.032 49.9831C114.574 50.2092 114.182 50.4516 113.855 50.7131C113.686 50.8656 113.518 50.9419 113.343 50.9419C113.147 50.9419 112.986 50.852 112.864 50.6695L111.436 48.6647C111.306 48.4904 111.24 48.2806 111.24 48.0327C111.24 47.7794 111.396 47.5288 111.709 47.2809C112.166 46.9404 112.66 46.6244 113.191 46.333C113.727 46.0442 114.348 45.81 115.054 45.6356C115.757 45.4613 116.585 45.3741 117.538 45.3741C118.393 45.3741 119.211 45.4831 119.99 45.701C120.774 45.9189 121.472 46.2839 122.082 46.7906C122.692 47.3 123.171 47.9837 123.52 48.839C123.874 49.6889 124.054 50.7431 124.054 51.9988V64.736C124.054 64.9758 123.98 65.1555 123.836 65.2699C123.689 65.3871 123.558 65.4443 123.444 65.4443H121.461C121.147 65.4443 120.921 65.3843 120.785 65.259C120.654 65.1365 120.534 64.9104 120.426 64.5835L120.262 63.3632C120.159 63.799 119.913 64.2103 119.521 64.5944C119.134 64.9812 118.649 65.2917 118.061 65.5314C117.478 65.7711 116.854 65.891 116.187 65.891C115.561 65.891 114.923 65.782 114.269 65.5641C113.621 65.3544 113.027 65.0084 112.482 64.529C111.938 64.0496 111.496 63.4149 111.164 62.6223C110.829 61.8241 110.663 60.8408 110.663 59.6695V59.0048ZM117.745 57C117.396 57 117.042 57.0735 116.688 57.2179C116.34 57.3568 116.048 57.5775 115.817 57.8826C115.59 58.1876 115.479 58.599 115.479 59.1138V59.5714C115.479 60.2034 115.653 60.71 116.002 61.0859C116.356 61.4646 116.786 61.6525 117.288 61.6525C117.606 61.6525 117.911 61.5599 118.203 61.3692C118.5 61.1731 118.742 60.8544 118.933 60.4104C119.129 59.9691 119.227 59.3862 119.227 58.6671V57H117.745Z" fill="#FFBD59"/>
<path d="M153.2 46.3984C153.2 46.1805 153.257 46.017 153.374 45.9081C153.488 45.7991 153.63 45.7446 153.799 45.7446H157.493C157.877 45.7446 158.07 45.9625 158.07 46.3984V59.8438C158.097 60.2797 158.25 60.6719 158.528 61.0206C158.811 61.3693 159.228 61.5436 159.781 61.5436C160.282 61.5436 160.696 61.3584 161.023 60.9879C161.35 60.612 161.513 60.1871 161.513 59.7131V46.5291C161.513 46.254 161.6 46.0552 161.775 45.9299C161.949 45.8073 162.118 45.7446 162.287 45.7446H165.806C165.959 45.7446 166.092 45.8046 166.209 45.919C166.324 46.0361 166.384 46.2023 166.384 46.4202V64.7905C166.384 65.0085 166.324 65.1719 166.209 65.2809C166.092 65.3898 165.942 65.4443 165.763 65.4443H163.474C163.235 65.4443 163.052 65.4062 162.93 65.3244C162.804 65.2373 162.712 65.0793 162.646 64.845L162.494 64.2566C161.984 64.7306 161.418 65.1065 160.794 65.3898C160.168 65.6731 159.519 65.8148 158.844 65.8148C157.754 65.8148 156.784 65.5696 155.935 65.0847C155.09 64.5917 154.423 63.9025 153.93 63.0145C153.442 62.1211 153.2 61.0723 153.2 59.8656V46.3984Z" fill="#FFBD59"/>
<path d="M169.021 59.6913V39.4686C169.021 39.0328 169.238 38.8149 169.674 38.8149H173.27C173.689 38.8149 173.902 39.0328 173.902 39.4686V59.408C173.902 59.9473 174.027 60.3614 174.283 60.6501C174.545 60.9334 175.027 61.0751 175.732 61.0751H176.059C176.348 61.0751 176.52 61.1595 176.571 61.3257C176.629 61.4946 176.658 61.6498 176.658 61.7942V64.8232C176.658 64.954 176.604 65.0929 176.495 65.2373C176.392 65.3762 176.086 65.4443 175.58 65.4443H174.359C173.632 65.4443 172.943 65.3571 172.289 65.1828C171.641 65.003 171.072 64.6979 170.579 64.2675C170.091 63.8317 169.71 63.2433 169.435 62.5024C169.157 61.7561 169.021 60.819 169.021 59.6913Z" fill="#FFBD59"/>
<path d="M179.388 45.7446H182.908C183.096 45.7446 183.262 45.8045 183.409 45.9189C183.562 46.0361 183.638 46.1777 183.638 46.3439V64.8123C183.638 65.0166 183.567 65.1719 183.431 65.2808C183.3 65.3898 183.126 65.4443 182.908 65.4443H179.388C178.953 65.4443 178.735 65.2345 178.735 64.8123V46.3439C178.735 46.1641 178.8 46.017 178.931 45.908C179.067 45.7991 179.22 45.7446 179.388 45.7446ZM183.747 40.6889V43.3366C183.747 43.7016 183.654 43.9522 183.474 44.0884C183.3 44.2192 183.06 44.2846 182.755 44.2846H179.639C179.312 44.2846 179.045 44.2192 178.844 44.0884C178.639 43.9577 178.539 43.7153 178.539 43.3584V40.6672C178.539 40.3702 178.618 40.1278 178.778 39.9371C178.936 39.741 179.225 39.6429 179.639 39.6429H182.755C183.109 39.6429 183.365 39.7356 183.518 39.9153C183.671 40.0978 183.747 40.3566 183.747 40.6889Z" fill="#FFBD59"/>
<path d="M185.69 59.0048C185.69 57.9752 185.881 57.0926 186.267 56.3571C186.651 55.6162 187.161 55.0115 187.793 54.5375C188.43 54.0663 189.133 53.7149 189.896 53.4806C190.658 53.2491 191.413 53.132 192.162 53.132H194.254V51.9443C194.268 51.2334 194.072 50.675 193.666 50.2664C193.265 49.8523 192.655 49.6453 191.835 49.6453C191.116 49.6453 190.522 49.7597 190.059 49.9831C189.602 50.2092 189.209 50.4516 188.882 50.7131C188.714 50.8656 188.545 50.9419 188.37 50.9419C188.174 50.9419 188.013 50.852 187.891 50.6695L186.464 48.6647C186.333 48.4904 186.267 48.2806 186.267 48.0327C186.267 47.7794 186.423 47.5288 186.736 47.2809C187.194 46.9404 187.687 46.6244 188.218 46.333C188.754 46.0442 189.375 45.81 190.081 45.6356C190.784 45.4613 191.612 45.3741 192.565 45.3741C193.421 45.3741 194.238 45.4831 195.017 45.701C195.801 45.9189 196.499 46.2839 197.109 46.7906C197.719 47.3 198.198 47.9837 198.547 48.839C198.901 49.6889 199.081 50.7431 199.081 51.9988V64.736C199.081 64.9758 199.007 65.1555 198.863 65.2699C198.716 65.3871 198.585 65.4443 198.471 65.4443H196.488C196.174 65.4443 195.948 65.3843 195.812 65.259C195.681 65.1365 195.562 64.9104 195.453 64.5835L195.289 63.3632C195.186 63.799 194.941 64.2103 194.548 64.5944C194.161 64.9812 193.677 65.2917 193.088 65.5314C192.505 65.7711 191.881 65.891 191.214 65.891C190.588 65.891 189.95 65.782 189.296 65.5641C188.648 65.3544 188.054 65.0084 187.51 64.529C186.965 64.0496 186.523 63.4149 186.191 62.6223C185.856 61.8241 185.69 60.8408 185.69 59.6695V59.0048ZM192.772 57C192.424 57 192.069 57.0735 191.715 57.2179C191.367 57.3568 191.075 57.5775 190.844 57.8826C190.618 58.1876 190.506 58.599 190.506 59.1138V59.5714C190.506 60.2034 190.68 60.71 191.029 61.0859C191.383 61.4646 191.813 61.6525 192.315 61.6525C192.633 61.6525 192.938 61.5599 193.23 61.3692C193.527 61.1731 193.769 60.8544 193.96 60.4104C194.156 59.9691 194.254 59.3862 194.254 58.6671V57H192.772Z" fill="#FFBD59"/>
<path d="M202.139 65.4443C201.97 65.4443 201.829 65.3871 201.714 65.2699C201.597 65.1555 201.54 64.9866 201.54 64.7687V46.3984C201.54 46.1804 201.597 46.017 201.714 45.908C201.829 45.7991 201.979 45.7446 202.161 45.7446H204.449C204.689 45.7446 204.874 45.7882 205.005 45.8754C205.136 45.9571 205.234 46.1123 205.299 46.3439L205.452 46.9322C205.958 46.461 206.522 46.0824 207.14 45.7991C207.756 45.5158 208.41 45.3741 209.102 45.3741C210.191 45.3741 211.156 45.622 212 46.1151C212.85 46.6027 213.517 47.2891 214.005 48.1744C214.498 49.0542 214.746 50.1029 214.746 51.3233V64.7905C214.746 64.9948 214.686 65.1555 214.571 65.2699C214.454 65.3871 214.313 65.4443 214.147 65.4443H210.453C210.284 65.4443 210.142 65.3871 210.028 65.2699C209.911 65.1555 209.854 64.9948 209.854 64.7905V51.4758C209.854 51.0264 209.715 50.6096 209.44 50.2228C209.162 49.8387 208.737 49.6453 208.165 49.6453C207.677 49.6453 207.271 49.8278 206.944 50.1901C206.623 50.5469 206.454 50.9583 206.432 51.4213V64.6598C206.432 64.9376 206.345 65.1365 206.171 65.259C205.996 65.3843 205.817 65.4443 205.637 65.4443H202.139Z" fill="#FFBD59"/>
<path d="M47.6607 83.8912C47.4047 83.8912 47.1622 83.8504 46.9307 83.7714C46.7046 83.6842 46.5057 83.5698 46.3314 83.4227C46.1625 83.2702 46.0291 83.0931 45.9283 82.8888C45.8329 82.6872 45.7866 82.4611 45.7866 82.2133V79.7072C45.7866 79.4757 45.8329 79.2605 45.9283 79.0644C46.0291 78.8628 46.1625 78.683 46.3314 78.5305C46.5057 78.3779 46.7046 78.2581 46.9307 78.1709C47.1622 78.0837 47.4047 78.0402 47.6607 78.0402C47.9222 78.0402 48.1646 78.0837 48.3907 78.1709C48.6141 78.2581 48.8075 78.3779 48.9682 78.5305C49.1262 78.683 49.2515 78.8628 49.3387 79.0644C49.4313 79.2605 49.4803 79.4757 49.4803 79.7072V80.1431C49.4803 80.2166 49.464 80.2684 49.4367 80.2956C49.4149 80.3174 49.3768 80.3283 49.3278 80.3283H48.4016C48.3199 80.3283 48.2654 80.3174 48.2382 80.2956C48.2082 80.2684 48.1946 80.2139 48.1946 80.1322V79.7617C48.1946 79.631 48.151 79.5165 48.0639 79.413C47.9767 79.3122 47.8514 79.2605 47.6934 79.2605C47.5463 79.2605 47.4237 79.3122 47.3229 79.413C47.2276 79.5165 47.1813 79.6282 47.1813 79.7508V82.1697C47.1813 82.3004 47.2276 82.4176 47.3229 82.5183C47.4237 82.6137 47.5463 82.66 47.6934 82.66C47.8514 82.66 47.9767 82.611 48.0639 82.5075C48.151 82.4067 48.1946 82.295 48.1946 82.1697V81.8973C48.1946 81.8265 48.2055 81.7747 48.2273 81.7447C48.2491 81.7175 48.2927 81.7012 48.358 81.7012H49.3278C49.385 81.7012 49.4258 81.7175 49.4476 81.7447C49.4694 81.7665 49.4803 81.8101 49.4803 81.8755V82.2133C49.4803 82.4475 49.4313 82.6654 49.3387 82.867C49.2515 83.0713 49.1262 83.2484 48.9682 83.4009C48.8075 83.5535 48.6141 83.6733 48.3907 83.7605C48.1646 83.8476 47.9222 83.8912 47.6607 83.8912Z" fill="#FF914D"/>
<path d="M50.0061 82.2133V79.7072C50.0061 79.4757 50.0524 79.2605 50.1477 79.0644C50.2485 78.8628 50.382 78.683 50.5509 78.5305C50.7252 78.3779 50.9241 78.2581 51.1502 78.1709C51.3735 78.0837 51.6187 78.0402 51.8802 78.0402C52.1417 78.0402 52.3814 78.0837 52.5993 78.1709C52.8172 78.2581 53.0052 78.3779 53.1659 78.5305C53.3239 78.683 53.4492 78.8628 53.5364 79.0644C53.6235 79.2605 53.6671 79.4757 53.6671 79.7072V81.0692C53.6671 81.1346 53.6453 81.1863 53.6017 81.2217C53.5636 81.2599 53.5146 81.2762 53.4492 81.2762H51.4008V82.2133C51.4008 82.3386 51.4471 82.4502 51.5424 82.551C51.635 82.6464 51.7603 82.6927 51.9129 82.6927C52.0654 82.6927 52.1853 82.6437 52.2724 82.5401C52.3596 82.4394 52.4032 82.3277 52.4032 82.2024V82.0389C52.4032 82.0117 52.4141 81.9817 52.4359 81.9518C52.4631 81.9245 52.504 81.9082 52.5557 81.9082H53.5146C53.5581 81.9082 53.5908 81.9191 53.6126 81.9409C53.6399 81.9627 53.6562 82.0008 53.6562 82.0498V82.2133C53.6562 82.5183 53.5799 82.7989 53.4274 83.0522C53.2803 83.3083 53.0733 83.5099 52.8063 83.6624C52.5367 83.815 52.2289 83.8912 51.8802 83.8912C51.6187 83.8912 51.3735 83.8476 51.1502 83.7605C50.9241 83.6733 50.7252 83.5535 50.5509 83.4009C50.382 83.2484 50.2485 83.0713 50.1477 82.867C50.0524 82.6654 50.0061 82.4475 50.0061 82.2133ZM51.4008 79.7181V80.3392H52.4032V79.729C52.4032 79.5983 52.3542 79.4866 52.2615 79.3912C52.1744 79.2905 52.0572 79.2387 51.9129 79.2387C51.7603 79.2387 51.635 79.2905 51.5424 79.3912C51.4471 79.4866 51.4008 79.5955 51.4008 79.7181Z" fill="#FF914D"/>
<path d="M54.4817 83.7823C54.43 83.7823 54.3864 83.7686 54.351 83.7387C54.321 83.7033 54.3074 83.6515 54.3074 83.5861V78.3343C54.3074 78.269 54.321 78.2227 54.351 78.1927C54.3864 78.1573 54.43 78.1382 54.4817 78.1382H55.1355C55.2063 78.1382 55.2608 78.1546 55.2989 78.1818C55.3343 78.2036 55.3588 78.2472 55.3752 78.3126L55.4187 78.4869C55.5713 78.3507 55.7347 78.2417 55.9091 78.16C56.0834 78.081 56.2686 78.0402 56.4647 78.0402C56.7753 78.0402 57.0531 78.111 57.2928 78.2472C57.538 78.3861 57.7314 78.5822 57.8703 78.8356C58.0147 79.0916 58.0882 79.3912 58.0882 79.7399V83.597C58.0882 83.657 58.0692 83.7033 58.0337 83.7387C57.9956 83.7686 57.9575 83.7823 57.9139 83.7823H56.857C56.8052 83.7823 56.7617 83.7686 56.7262 83.7387C56.6963 83.7033 56.6827 83.657 56.6827 83.597V79.7835C56.6827 79.6527 56.6418 79.5329 56.5628 79.4239C56.4811 79.315 56.3612 79.2605 56.2032 79.2605C56.0643 79.2605 55.9472 79.3123 55.8546 79.413C55.7592 79.5165 55.7075 79.6364 55.702 79.7726V83.5535C55.702 83.6352 55.6748 83.6924 55.6258 83.7278C55.5822 83.7659 55.5332 83.7823 55.4841 83.7823H54.4817Z" fill="#FF914D"/>
<path d="M58.5134 79.1624V78.3561C58.5134 78.2853 58.5298 78.2308 58.5679 78.1927C58.6033 78.1573 58.6387 78.1382 58.6769 78.1382H59.0037V77.2992C59.0037 77.2338 59.0146 77.1848 59.0364 77.1467C59.0582 77.1113 59.0964 77.0867 59.1563 77.0704L60.1805 76.7762C60.1941 76.7708 60.2132 76.7653 60.235 76.7653C60.3439 76.7653 60.3984 76.828 60.3984 76.9505V78.1382H60.9541C61.0549 78.1382 61.1066 78.209 61.1066 78.3452V79.1624C61.1066 79.2278 61.0903 79.2795 61.0631 79.3149C61.0331 79.3531 60.9895 79.3694 60.9323 79.3694H60.3984V82.0498C60.3984 82.2105 60.4338 82.3304 60.5074 82.4094C60.5782 82.4911 60.7171 82.5292 60.9214 82.5292H61.0195C61.0985 82.5292 61.1448 82.5565 61.1611 82.6055C61.1747 82.6491 61.1829 82.6927 61.1829 82.7362V83.6079C61.1829 83.646 61.1666 83.6842 61.1393 83.7278C61.1094 83.7659 61.0222 83.7822 60.8778 83.7822H60.5292C60.3167 83.7822 60.1178 83.7577 59.9299 83.706C59.7474 83.6569 59.5839 83.5698 59.4396 83.4445C59.3007 83.3219 59.1917 83.1557 59.1127 82.9433C59.0392 82.7253 59.0037 82.4584 59.0037 82.137V79.3694H58.6769C58.6469 79.3694 58.6115 79.3558 58.5679 79.3258C58.5298 79.2904 58.5134 79.236 58.5134 79.1624Z" fill="#FF914D"/>
<path d="M61.7334 83.5861V79.9687C61.7334 79.6201 61.7906 79.3259 61.9077 79.0862C62.0221 78.841 62.1747 78.6394 62.3654 78.4869C62.5615 78.3343 62.7712 78.2227 62.9973 78.1491C63.2207 78.0783 63.4468 78.0402 63.6729 78.0402C63.7954 78.0402 63.9044 78.0456 63.9997 78.0511C64.1005 78.0511 64.1904 78.062 64.2721 78.0837C64.3729 78.1137 64.4247 78.1873 64.4247 78.3017V79.0862C64.4247 79.1679 64.3974 79.2251 64.3484 79.2605C64.2966 79.2905 64.2394 79.3041 64.1741 79.3041H63.8908C63.6647 79.3041 63.4795 79.3803 63.3351 79.5329C63.1962 79.6854 63.1281 79.8925 63.1281 80.154V83.5208C63.1281 83.6161 63.0981 83.6842 63.0409 83.7278C62.9891 83.7659 62.9347 83.7823 62.8775 83.7823H61.8968C61.8533 83.7823 61.8124 83.7686 61.777 83.7387C61.747 83.7033 61.7334 83.6515 61.7334 83.5861Z" fill="#FF914D"/>
<path d="M64.8242 82.2133V79.7072C64.8242 79.4757 64.8705 79.2605 64.9659 79.0644C65.0667 78.8628 65.2001 78.683 65.369 78.5305C65.5433 78.3779 65.7422 78.2581 65.9683 78.1709C66.1998 78.0837 66.4422 78.0402 66.6983 78.0402C66.9598 78.0402 67.205 78.081 67.4392 78.16C67.6708 78.2417 67.8751 78.3561 68.0494 78.5087C68.2237 78.6558 68.3572 78.8301 68.4525 79.0317C68.5451 79.236 68.5942 79.4621 68.5942 79.7072V82.2133C68.5942 82.4611 68.5451 82.6872 68.4525 82.8888C68.3572 83.0931 68.2237 83.2702 68.0494 83.4227C67.8751 83.5698 67.6708 83.6842 67.4392 83.7714C67.2131 83.8504 66.9707 83.8912 66.7092 83.8912C66.4477 83.8912 66.2025 83.8504 65.9792 83.7714C65.7531 83.6842 65.5542 83.5698 65.3799 83.4227C65.2056 83.2702 65.0667 83.0931 64.9659 82.8888C64.8705 82.6872 64.8242 82.4611 64.8242 82.2133ZM66.2189 79.7508V82.1697C66.2189 82.3004 66.2625 82.4176 66.3496 82.5183C66.4422 82.6137 66.5676 82.66 66.7201 82.66C66.8645 82.66 66.9816 82.6137 67.0688 82.5183C67.1614 82.4176 67.2104 82.3004 67.2104 82.1697V79.7508C67.2104 79.6282 67.1614 79.5165 67.0688 79.413C66.9816 79.3122 66.8645 79.2605 66.7201 79.2605C66.5676 79.2605 66.4422 79.3122 66.3496 79.413C66.2625 79.5165 66.2189 79.6282 66.2189 79.7508Z" fill="#FF914D"/>
<path d="M73.35 83.8912C73.0068 83.8912 72.7208 83.815 72.4892 83.6624C72.255 83.5044 72.0779 83.2892 71.9553 83.0196C71.8382 82.7526 71.781 82.4502 71.781 82.1152V79.7399C71.781 79.3994 71.8464 79.1025 71.9771 78.8465C72.1133 78.5931 72.2958 78.397 72.5219 78.2581C72.7535 78.1137 73.015 78.0402 73.3064 78.0402C73.459 78.0402 73.6033 78.0674 73.7423 78.1164C73.8866 78.16 74.0283 78.2254 74.1672 78.3126V76.3513C74.1672 76.2287 74.2244 76.1661 74.3415 76.1661H75.3766C75.4992 76.1661 75.5619 76.2287 75.5619 76.3513V83.597C75.5619 83.7223 75.4992 83.7823 75.3766 83.7823H74.7447C74.6847 83.7823 74.6412 83.7686 74.6139 83.7387C74.584 83.7114 74.554 83.6515 74.5268 83.5643L74.4723 83.3464C74.3334 83.5071 74.1699 83.6379 73.982 83.7387C73.7995 83.8395 73.5897 83.8912 73.35 83.8912ZM73.1866 82.1697C73.1866 82.3004 73.2302 82.4176 73.3173 82.5183C73.4045 82.6137 73.5243 82.66 73.6769 82.66C73.8294 82.66 73.9493 82.6137 74.0364 82.5183C74.1236 82.4176 74.1672 82.3004 74.1672 82.1697V79.7508C74.1672 79.6282 74.1236 79.5165 74.0364 79.413C73.9493 79.3122 73.8294 79.2605 73.6769 79.2605C73.5298 79.2605 73.4099 79.3122 73.3173 79.413C73.2302 79.5165 73.1866 79.6282 73.1866 79.7508V82.1697Z" fill="#FF914D"/>
<path d="M76.2434 82.2133V79.7072C76.2434 79.4757 76.2897 79.2605 76.3851 79.0644C76.4858 78.8628 76.6193 78.683 76.7882 78.5305C76.9625 78.3779 77.1614 78.2581 77.3875 78.1709C77.6108 78.0837 77.856 78.0402 78.1175 78.0402C78.379 78.0402 78.6187 78.0837 78.8366 78.1709C79.0545 78.2581 79.2425 78.3779 79.4032 78.5305C79.5612 78.683 79.6865 78.8628 79.7737 79.0644C79.8608 79.2605 79.9044 79.4757 79.9044 79.7072V81.0692C79.9044 81.1346 79.8826 81.1863 79.839 81.2217C79.8009 81.2599 79.7519 81.2762 79.6865 81.2762H77.6381V82.2133C77.6381 82.3386 77.6844 82.4502 77.7797 82.551C77.8723 82.6464 77.9976 82.6927 78.1502 82.6927C78.3027 82.6927 78.4226 82.6437 78.5097 82.5401C78.5969 82.4394 78.6405 82.3277 78.6405 82.2024V82.0389C78.6405 82.0117 78.6514 81.9817 78.6732 81.9518C78.7004 81.9245 78.7413 81.9082 78.793 81.9082H79.7519C79.7954 81.9082 79.8281 81.9191 79.8499 81.9409C79.8772 81.9627 79.8935 82.0008 79.8935 82.0498V82.2133C79.8935 82.5183 79.8172 82.7989 79.6647 83.0522C79.5176 83.3083 79.3106 83.5099 79.0436 83.6624C78.774 83.815 78.4662 83.8912 78.1175 83.8912C77.856 83.8912 77.6108 83.8476 77.3875 83.7605C77.1614 83.6733 76.9625 83.5535 76.7882 83.4009C76.6193 83.2484 76.4858 83.0713 76.3851 82.867C76.2897 82.6654 76.2434 82.4475 76.2434 82.2133ZM77.6381 79.7181V80.3392H78.6405V79.729C78.6405 79.5983 78.5915 79.4866 78.4988 79.3912C78.4117 79.2905 78.2945 79.2387 78.1502 79.2387C77.9976 79.2387 77.8723 79.2905 77.7797 79.3912C77.6844 79.4866 77.6381 79.5955 77.6381 79.7181Z" fill="#FF914D"/>
<path d="M83.177 76.3731C83.177 76.2369 83.2424 76.1661 83.3731 76.1661H86.522C86.6228 76.1661 86.6746 76.2315 86.6746 76.3622V77.2992C86.6746 77.43 86.6228 77.4954 86.522 77.4954H84.6479V79.3803H86.0971C86.1407 79.3803 86.1761 79.3967 86.206 79.4239C86.2415 79.4539 86.2605 79.5002 86.2605 79.5656V80.5135C86.2605 80.6388 86.206 80.6987 86.0971 80.6987H84.6479V83.5752C84.6479 83.7142 84.588 83.7823 84.4736 83.7823H83.3731C83.2424 83.7823 83.177 83.7142 83.177 83.5752V76.3731Z" fill="#FF914D"/>
<path d="M87.188 82.137V76.3513C87.188 76.2287 87.2534 76.1661 87.3841 76.1661H88.4083C88.5309 76.1661 88.5936 76.2287 88.5936 76.3513V82.0498C88.5936 82.2105 88.629 82.3304 88.7025 82.4094C88.7733 82.4911 88.9123 82.5292 89.1166 82.5292H89.2037C89.2909 82.5292 89.3399 82.5565 89.3563 82.6055C89.3699 82.6491 89.3781 82.6927 89.3781 82.7363V83.6079C89.3781 83.6461 89.3617 83.6842 89.3345 83.7278C89.3045 83.7659 89.2173 83.7823 89.073 83.7823H88.7243C88.5118 83.7823 88.313 83.7577 88.125 83.706C87.9425 83.657 87.7791 83.5698 87.6347 83.4445C87.4958 83.3219 87.3868 83.1558 87.3078 82.9433C87.2261 82.7254 87.188 82.4584 87.188 82.137Z" fill="#FF914D"/>
<path d="M89.8826 82.2133V79.7072C89.8826 79.4757 89.9289 79.2605 90.0242 79.0644C90.125 78.8628 90.2585 78.683 90.4274 78.5305C90.6017 78.3779 90.8005 78.2581 91.0266 78.1709C91.25 78.0837 91.4952 78.0402 91.7567 78.0402C92.0182 78.0402 92.2579 78.0837 92.4758 78.1709C92.6937 78.2581 92.8816 78.3779 93.0424 78.5305C93.2004 78.683 93.3257 78.8628 93.4128 79.0644C93.5 79.2605 93.5436 79.4757 93.5436 79.7072V81.0692C93.5436 81.1346 93.5218 81.1863 93.4782 81.2217C93.4401 81.2599 93.391 81.2762 93.3257 81.2762H91.2772V82.2133C91.2772 82.3386 91.3235 82.4502 91.4189 82.551C91.5115 82.6464 91.6368 82.6927 91.7893 82.6927C91.9419 82.6927 92.0617 82.6437 92.1489 82.5401C92.2361 82.4394 92.2797 82.3277 92.2797 82.2024V82.0389C92.2797 82.0117 92.2905 81.9817 92.3123 81.9518C92.3396 81.9245 92.3804 81.9082 92.4322 81.9082H93.391C93.4346 81.9082 93.4673 81.9191 93.4891 81.9409C93.5163 81.9627 93.5327 82.0008 93.5327 82.0498V82.2133C93.5327 82.5183 93.4564 82.7989 93.3039 83.0522C93.1568 83.3083 92.9497 83.5099 92.6828 83.6624C92.4131 83.815 92.1053 83.8912 91.7567 83.8912C91.4952 83.8912 91.25 83.8476 91.0266 83.7605C90.8005 83.6733 90.6017 83.5535 90.4274 83.4009C90.2585 83.2484 90.125 83.0713 90.0242 82.867C89.9289 82.6654 89.8826 82.4475 89.8826 82.2133ZM91.2772 79.7181V80.3392H92.2797V79.729C92.2797 79.5983 92.2306 79.4866 92.138 79.3912C92.0508 79.2905 91.9337 79.2387 91.7893 79.2387C91.6368 79.2387 91.5115 79.2905 91.4189 79.3912C91.3235 79.4866 91.2772 79.5955 91.2772 79.7181Z" fill="#FF914D"/>
<path d="M94.1951 76.3513C94.1951 76.2287 94.2604 76.1661 94.3912 76.1661H95.4263C95.5407 76.1661 95.6006 76.2287 95.6006 76.3513V78.3126C95.7314 78.2254 95.8676 78.16 96.0147 78.1164C96.159 78.0674 96.3089 78.0402 96.4614 78.0402C96.6793 78.0402 96.8782 78.0837 97.0607 78.1709C97.2486 78.2581 97.4093 78.3834 97.5401 78.5414C97.6763 78.6939 97.7825 78.8737 97.8561 79.0753C97.9351 79.2796 97.9759 79.5002 97.9759 79.7399V82.1152C97.9759 82.4502 97.916 82.7526 97.8016 83.0196C97.6845 83.2892 97.5101 83.5044 97.2786 83.6624C97.0443 83.815 96.7583 83.8912 96.4178 83.8912C96.1781 83.8912 95.9629 83.8395 95.775 83.7387C95.5925 83.6379 95.429 83.5071 95.2847 83.3464L95.2411 83.5643C95.2111 83.6515 95.1811 83.7114 95.1539 83.7387C95.1239 83.7686 95.0776 83.7823 95.0123 83.7823H94.3912C94.2604 83.7823 94.1951 83.7223 94.1951 83.597V76.3513ZM96.0909 79.2605C95.9384 79.2605 95.8185 79.3122 95.7314 79.413C95.6442 79.5165 95.6006 79.6282 95.6006 79.7508V82.1697C95.6006 82.3004 95.6442 82.4176 95.7314 82.5183C95.824 82.6137 95.9438 82.66 96.0909 82.66C96.2353 82.66 96.3524 82.6137 96.4396 82.5183C96.5322 82.4176 96.5813 82.3004 96.5813 82.1697V79.7508C96.5813 79.6282 96.5322 79.5165 96.4396 79.413C96.3524 79.3122 96.2353 79.2605 96.0909 79.2605Z" fill="#FF914D"/>
<path d="M98.5479 82.2133V79.7072C98.5479 79.4757 98.5942 79.2605 98.6895 79.0644C98.7903 78.8628 98.9238 78.683 99.0926 78.5305C99.267 78.3779 99.4658 78.2581 99.6919 78.1709C99.9235 78.0837 100.166 78.0402 100.422 78.0402C100.683 78.0402 100.929 78.081 101.163 78.16C101.394 78.2417 101.599 78.3561 101.773 78.5087C101.947 78.6558 102.081 78.8301 102.176 79.0317C102.269 79.236 102.318 79.4621 102.318 79.7072V82.2133C102.318 82.4611 102.269 82.6872 102.176 82.8888C102.081 83.0931 101.947 83.2702 101.773 83.4227C101.599 83.5698 101.394 83.6842 101.163 83.7714C100.937 83.8504 100.694 83.8912 100.433 83.8912C100.171 83.8912 99.9262 83.8504 99.7028 83.7714C99.4767 83.6842 99.2779 83.5698 99.1035 83.4227C98.9292 83.2702 98.7903 83.0931 98.6895 82.8888C98.5942 82.6872 98.5479 82.4611 98.5479 82.2133ZM99.9425 79.7508V82.1697C99.9425 82.3004 99.9861 82.4176 100.073 82.5183C100.166 82.6137 100.291 82.66 100.444 82.66C100.588 82.66 100.705 82.6137 100.792 82.5183C100.885 82.4176 100.934 82.3004 100.934 82.1697V79.7508C100.934 79.6282 100.885 79.5165 100.792 79.413C100.705 79.3122 100.588 79.2605 100.444 79.2605C100.291 79.2605 100.166 79.3122 100.073 79.413C99.9861 79.5165 99.9425 79.6282 99.9425 79.7508Z" fill="#FF914D"/>
<path d="M102.992 82.137V76.3513C102.992 76.2287 103.057 76.1661 103.188 76.1661H104.212C104.335 76.1661 104.398 76.2287 104.398 76.3513V82.0498C104.398 82.2105 104.433 82.3304 104.506 82.4094C104.577 82.4911 104.716 82.5292 104.921 82.5292H105.008C105.095 82.5292 105.144 82.5565 105.16 82.6055C105.174 82.6491 105.182 82.6927 105.182 82.7363V83.6079C105.182 83.6461 105.166 83.6842 105.138 83.7278C105.108 83.7659 105.021 83.7823 104.877 83.7823H104.528C104.316 83.7823 104.117 83.7577 103.929 83.706C103.746 83.657 103.583 83.5698 103.439 83.4445C103.3 83.3219 103.191 83.1558 103.112 82.9433C103.03 82.7254 102.992 82.4584 102.992 82.137Z" fill="#FF914D"/>
<path d="M105.676 82.2133V79.7072C105.676 79.4757 105.722 79.2605 105.818 79.0644C105.918 78.8628 106.052 78.683 106.221 78.5305C106.395 78.3779 106.594 78.2581 106.82 78.1709C107.052 78.0837 107.294 78.0402 107.55 78.0402C107.812 78.0402 108.057 78.081 108.291 78.16C108.523 78.2417 108.727 78.3561 108.901 78.5087C109.076 78.6558 109.209 78.8301 109.304 79.0317C109.397 79.236 109.446 79.4621 109.446 79.7072V82.2133C109.446 82.4611 109.397 82.6872 109.304 82.8888C109.209 83.0931 109.076 83.2702 108.901 83.4227C108.727 83.5698 108.523 83.6842 108.291 83.7714C108.065 83.8504 107.823 83.8912 107.561 83.8912C107.3 83.8912 107.054 83.8504 106.831 83.7714C106.605 83.6842 106.406 83.5698 106.232 83.4227C106.057 83.2702 105.918 83.0931 105.818 82.8888C105.722 82.6872 105.676 82.4611 105.676 82.2133ZM107.071 79.7508V82.1697C107.071 82.3004 107.114 82.4176 107.201 82.5183C107.294 82.6137 107.419 82.66 107.572 82.66C107.716 82.66 107.833 82.6137 107.921 82.5183C108.013 82.4176 108.062 82.3004 108.062 82.1697V79.7508C108.062 79.6282 108.013 79.5165 107.921 79.413C107.833 79.3122 107.716 79.2605 107.572 79.2605C107.419 79.2605 107.294 79.3122 107.201 79.413C107.114 79.5165 107.071 79.6282 107.071 79.7508Z" fill="#FF914D"/>
<path d="M111.559 83.4881C111.302 83.4881 111.079 83.4418 110.883 83.3464C110.687 83.2456 110.523 83.1149 110.393 82.9542C110.267 82.788 110.175 82.6055 110.109 82.4094C110.049 82.2078 110.022 82.0035 110.022 81.7992V79.8489C110.022 79.5165 110.077 79.2115 110.186 78.9336C110.295 78.6585 110.463 78.4406 110.698 78.2799C110.937 78.1219 111.248 78.0402 111.635 78.0402C111.831 78.0402 112.019 78.0837 112.201 78.1709C112.381 78.2581 112.55 78.3779 112.703 78.5305L112.768 78.3126C112.803 78.1982 112.882 78.1382 113.008 78.1382H113.618C113.667 78.1382 113.708 78.1573 113.738 78.1927C113.773 78.2227 113.792 78.2662 113.792 78.3235V83.2484C113.792 83.6788 113.738 84.0329 113.629 84.3162C113.525 84.6049 113.384 84.8337 113.204 85.0026C113.021 85.1769 112.812 85.2995 112.572 85.3731C112.332 85.4521 112.082 85.4929 111.82 85.4929C111.55 85.4929 111.278 85.4602 111.003 85.3948C110.733 85.3295 110.491 85.2151 110.273 85.0571C110.177 84.9972 110.126 84.9372 110.12 84.8718C110.12 84.8119 110.131 84.7574 110.153 84.7084L110.436 84.0982C110.472 84.0329 110.515 84.0002 110.567 84.0002C110.589 84.0002 110.611 84.0029 110.632 84.0111C110.654 84.0247 110.676 84.0383 110.698 84.0547C110.807 84.1337 110.94 84.2018 111.101 84.2617C111.267 84.3271 111.444 84.3597 111.635 84.3597C111.787 84.3597 111.918 84.3298 112.027 84.2726C112.141 84.2127 112.234 84.12 112.299 83.9893C112.365 83.864 112.398 83.6924 112.398 83.4663V83.2157C112.28 83.3028 112.152 83.3737 112.016 83.4227C111.877 83.4663 111.725 83.4881 111.559 83.4881ZM111.417 81.7992C111.417 81.9245 111.46 82.0335 111.548 82.1261C111.635 82.2214 111.744 82.2677 111.875 82.2677C112.041 82.2677 112.169 82.2187 112.256 82.1152C112.348 82.0062 112.398 81.8755 112.398 81.723V79.7617C112.398 79.6255 112.348 79.5084 112.256 79.413C112.161 79.3122 112.038 79.2605 111.885 79.2605C111.755 79.2605 111.64 79.3095 111.548 79.4021C111.46 79.4975 111.417 79.6092 111.417 79.7399V81.7992Z" fill="#FF914D"/>
<path d="M114.762 78.1382H115.764C115.821 78.1382 115.868 78.1573 115.906 78.1927C115.949 78.2308 115.971 78.269 115.971 78.3126V83.597C115.971 83.657 115.952 83.7033 115.917 83.7387C115.878 83.7687 115.829 83.7823 115.764 83.7823H114.762C114.631 83.7823 114.565 83.7223 114.565 83.597V78.3126C114.565 78.2635 114.582 78.2227 114.62 78.1927C114.664 78.1573 114.71 78.1382 114.762 78.1382ZM116.004 76.7V77.4518C116.004 77.5553 115.976 77.6261 115.927 77.6697C115.876 77.7078 115.808 77.7242 115.72 77.7242H114.827C114.732 77.7242 114.655 77.7078 114.598 77.6697C114.538 77.6343 114.511 77.5662 114.511 77.4627V76.6891C114.511 76.6019 114.533 76.5338 114.576 76.4821C114.625 76.4249 114.71 76.3949 114.827 76.3949H115.72C115.821 76.3949 115.895 76.4221 115.938 76.4712C115.982 76.5229 116.004 76.5992 116.004 76.7Z" fill="#FF914D"/>
<path d="M116.567 81.9409C116.567 81.644 116.622 81.3906 116.731 81.1782C116.84 80.9684 116.984 80.7968 117.167 80.6661C117.346 80.5299 117.548 80.4263 117.766 80.361C117.984 80.2956 118.202 80.2629 118.42 80.2629H119.019V79.9142C119.019 79.7127 118.959 79.552 118.845 79.4348C118.727 79.3204 118.553 79.2605 118.322 79.2605C118.117 79.2605 117.946 79.2932 117.81 79.3586C117.679 79.4239 117.57 79.4948 117.483 79.5656C117.431 79.6092 117.379 79.631 117.33 79.631C117.27 79.631 117.224 79.6064 117.188 79.5547L116.785 78.9772C116.747 78.9282 116.731 78.8682 116.731 78.8029C116.731 78.732 116.774 78.6585 116.862 78.585C116.992 78.4842 117.134 78.3943 117.287 78.3126C117.439 78.2336 117.616 78.1682 117.82 78.1164C118.022 78.0674 118.259 78.0402 118.529 78.0402C118.774 78.0402 119.011 78.0728 119.237 78.1382C119.46 78.1982 119.662 78.2989 119.836 78.4433C120.01 78.5904 120.144 78.7865 120.239 79.0317C120.34 79.2714 120.392 79.5737 120.392 79.936V83.5752C120.392 83.6488 120.37 83.7033 120.326 83.7387C120.288 83.7686 120.253 83.7823 120.217 83.7823H119.651C119.564 83.7823 119.498 83.7659 119.455 83.7278C119.417 83.6924 119.384 83.627 119.357 83.5317L119.313 83.183C119.283 83.3137 119.21 83.4336 119.095 83.5426C118.986 83.6515 118.847 83.7387 118.681 83.8041C118.512 83.8749 118.335 83.913 118.147 83.913C117.965 83.913 117.78 83.8803 117.592 83.815C117.409 83.7577 117.237 83.6597 117.079 83.5208C116.927 83.3846 116.802 83.2021 116.709 82.976C116.614 82.7444 116.567 82.4611 116.567 82.1261V81.9409ZM118.594 81.3634C118.49 81.3634 118.39 81.3852 118.289 81.4288C118.185 81.4669 118.104 81.5323 118.038 81.6249C117.973 81.7121 117.94 81.8292 117.94 81.9736V82.1043C117.94 82.2868 117.989 82.4312 118.093 82.5401C118.194 82.6437 118.316 82.6927 118.463 82.6927C118.55 82.6927 118.632 82.6682 118.714 82.6164C118.801 82.5592 118.872 82.4693 118.932 82.344C118.989 82.2133 119.019 82.0471 119.019 81.8428V81.3634H118.594Z" fill="#FF914D"/>
<path d="M123.628 78.3344C123.628 78.269 123.642 78.2227 123.672 78.1927C123.707 78.1573 123.748 78.1382 123.791 78.1382H124.87C124.914 78.1382 124.949 78.1573 124.979 78.1927C125.006 78.2227 125.023 78.269 125.023 78.3344V81.7883C125.023 81.9137 125.066 82.0253 125.153 82.1261C125.246 82.2296 125.371 82.2787 125.524 82.2787C125.625 82.2787 125.712 82.2514 125.785 82.1915C125.856 82.1343 125.911 82.0607 125.949 81.9736C125.992 81.8864 126.014 81.7965 126.014 81.7012V78.3888C126.014 78.3017 126.039 78.2418 126.09 78.2036C126.148 78.16 126.191 78.1382 126.221 78.1382H127.234C127.278 78.1382 127.316 78.1573 127.354 78.1927C127.39 78.2227 127.409 78.269 127.409 78.3344V83.3682C127.409 83.7877 127.333 84.1582 127.18 84.4796C127.027 84.7983 126.801 85.0462 126.504 85.2205C126.213 85.4003 125.853 85.4929 125.426 85.4929C125.091 85.4929 124.786 85.4439 124.51 85.3513C124.233 85.2641 124.012 85.1579 123.846 85.0353C123.786 84.9972 123.751 84.9536 123.737 84.9046C123.721 84.8528 123.729 84.801 123.759 84.752L124.064 84.0874C124.091 84.0274 124.129 84.0002 124.173 84.0002C124.216 84.0002 124.26 84.0165 124.303 84.0547C124.418 84.1337 124.565 84.2018 124.739 84.2617C124.914 84.3271 125.072 84.3598 125.219 84.3598C125.355 84.3598 125.483 84.3325 125.6 84.2835C125.723 84.2317 125.821 84.1473 125.894 84.0329C125.973 83.9239 126.014 83.7687 126.014 83.5644V83.2593C125.736 83.42 125.461 83.499 125.186 83.499C124.886 83.499 124.619 83.4309 124.38 83.292C124.145 83.1476 123.96 82.9488 123.824 82.6927C123.693 82.4394 123.628 82.1425 123.628 81.7992V78.3344Z" fill="#FF914D"/>
<path d="M130.788 76.3622C130.788 76.2315 130.842 76.1661 130.951 76.1661H132.324C132.389 76.1661 132.427 76.1851 132.444 76.2206C132.466 76.2505 132.482 76.2941 132.498 76.3513L133.457 80.1431L133.501 80.4372L133.544 80.154L134.525 76.3513C134.53 76.2941 134.541 76.2505 134.558 76.2206C134.579 76.1851 134.617 76.1661 134.677 76.1661H136.061C136.162 76.1661 136.214 76.2315 136.214 76.3622L136.225 83.5752C136.225 83.7142 136.17 83.7823 136.061 83.7823H135.026C134.917 83.7823 134.863 83.7142 134.863 83.5752L134.884 79.3803L134.917 78.9663L134.906 79.0317L134.089 82.4966C134.067 82.5701 134.045 82.6219 134.024 82.6491C134.007 82.6709 133.969 82.6818 133.904 82.6818H133.108C133.048 82.6818 133.01 82.6682 132.989 82.6382C132.967 82.611 132.945 82.5619 132.923 82.4966L132.095 79.0099L132.128 79.3803L132.139 83.5752C132.139 83.7142 132.087 83.7823 131.986 83.7823H130.951C130.842 83.7823 130.788 83.7142 130.788 83.5752V76.3622Z" fill="#FF914D"/>
<path d="M136.97 82.2133V79.7072C136.97 79.4757 137.016 79.2605 137.111 79.0644C137.212 78.8628 137.346 78.683 137.515 78.5305C137.689 78.3779 137.888 78.2581 138.114 78.1709C138.337 78.0837 138.582 78.0402 138.844 78.0402C139.105 78.0402 139.345 78.0837 139.563 78.1709C139.781 78.2581 139.969 78.3779 140.13 78.5305C140.288 78.683 140.413 78.8628 140.5 79.0644C140.587 79.2605 140.631 79.4757 140.631 79.7072V81.0692C140.631 81.1346 140.609 81.1863 140.565 81.2217C140.527 81.2599 140.478 81.2762 140.413 81.2762H138.364V82.2133C138.364 82.3386 138.411 82.4502 138.506 82.551C138.599 82.6464 138.724 82.6927 138.876 82.6927C139.029 82.6927 139.149 82.6437 139.236 82.5401C139.323 82.4394 139.367 82.3277 139.367 82.2024V82.0389C139.367 82.0117 139.378 81.9817 139.399 81.9518C139.427 81.9245 139.468 81.9082 139.519 81.9082H140.478C140.522 81.9082 140.554 81.9191 140.576 81.9409C140.603 81.9627 140.62 82.0008 140.62 82.0498V82.2133C140.62 82.5183 140.544 82.7989 140.391 83.0522C140.244 83.3083 140.037 83.5099 139.77 83.6624C139.5 83.815 139.192 83.8912 138.844 83.8912C138.582 83.8912 138.337 83.8476 138.114 83.7605C137.888 83.6733 137.689 83.5535 137.515 83.4009C137.346 83.2484 137.212 83.0713 137.111 82.867C137.016 82.6654 136.97 82.4475 136.97 82.2133ZM138.364 79.7181V80.3392H139.367V79.729C139.367 79.5983 139.318 79.4866 139.225 79.3912C139.138 79.2905 139.021 79.2387 138.876 79.2387C138.724 79.2387 138.599 79.2905 138.506 79.3912C138.411 79.4866 138.364 79.5955 138.364 79.7181Z" fill="#FF914D"/>
<path d="M142.808 83.8912C142.465 83.8912 142.179 83.815 141.947 83.6624C141.713 83.5044 141.536 83.2892 141.413 83.0196C141.296 82.7526 141.239 82.4502 141.239 82.1152V79.7399C141.239 79.3994 141.304 79.1025 141.435 78.8465C141.571 78.5931 141.754 78.397 141.98 78.2581C142.211 78.1137 142.473 78.0402 142.764 78.0402C142.917 78.0402 143.061 78.0674 143.2 78.1164C143.344 78.16 143.486 78.2254 143.625 78.3126V76.3513C143.625 76.2287 143.682 76.1661 143.799 76.1661H144.834C144.957 76.1661 145.02 76.2287 145.02 76.3513V83.597C145.02 83.7223 144.957 83.7823 144.834 83.7823H144.202C144.143 83.7823 144.099 83.7686 144.072 83.7387C144.042 83.7114 144.012 83.6515 143.985 83.5643L143.93 83.3464C143.791 83.5071 143.628 83.6379 143.44 83.7387C143.257 83.8395 143.047 83.8912 142.808 83.8912ZM142.644 82.1697C142.644 82.3004 142.688 82.4176 142.775 82.5183C142.862 82.6137 142.982 82.66 143.135 82.66C143.287 82.66 143.407 82.6137 143.494 82.5183C143.581 82.4176 143.625 82.3004 143.625 82.1697V79.7508C143.625 79.6282 143.581 79.5165 143.494 79.413C143.407 79.3122 143.287 79.2605 143.135 79.2605C142.988 79.2605 142.868 79.3122 142.775 79.413C142.688 79.5165 142.644 79.6282 142.644 79.7508V82.1697Z" fill="#FF914D"/>
<path d="M145.984 78.1382H146.987C147.044 78.1382 147.09 78.1573 147.129 78.1927C147.172 78.2308 147.194 78.269 147.194 78.3126V83.597C147.194 83.657 147.175 83.7033 147.139 83.7387C147.101 83.7687 147.052 83.7823 146.987 83.7823H145.984C145.854 83.7823 145.788 83.7223 145.788 83.597V78.3126C145.788 78.2635 145.805 78.2227 145.843 78.1927C145.886 78.1573 145.933 78.1382 145.984 78.1382ZM147.227 76.7V77.4518C147.227 77.5553 147.199 77.6261 147.15 77.6697C147.099 77.7078 147.03 77.7242 146.943 77.7242H146.05C145.955 77.7242 145.878 77.7078 145.821 77.6697C145.761 77.6343 145.734 77.5662 145.734 77.4627V76.6891C145.734 76.6019 145.756 76.5338 145.799 76.4821C145.848 76.4249 145.933 76.3949 146.05 76.3949H146.943C147.044 76.3949 147.118 76.4221 147.161 76.4712C147.205 76.5229 147.227 76.5992 147.227 76.7Z" fill="#FF914D"/>
<path d="M149.74 83.8912C149.484 83.8912 149.242 83.8504 149.01 83.7714C148.784 83.6842 148.585 83.5698 148.411 83.4227C148.242 83.2702 148.109 83.0931 148.008 82.8888C147.913 82.6872 147.866 82.4611 147.866 82.2133V79.7072C147.866 79.4757 147.913 79.2605 148.008 79.0644C148.109 78.8628 148.242 78.683 148.411 78.5305C148.585 78.3779 148.784 78.2581 149.01 78.1709C149.242 78.0837 149.484 78.0402 149.74 78.0402C150.002 78.0402 150.244 78.0837 150.47 78.1709C150.694 78.2581 150.887 78.3779 151.048 78.5305C151.206 78.683 151.331 78.8628 151.418 79.0644C151.511 79.2605 151.56 79.4757 151.56 79.7072V80.1431C151.56 80.2166 151.544 80.2684 151.516 80.2956C151.495 80.3174 151.456 80.3283 151.407 80.3283H150.481C150.399 80.3283 150.345 80.3174 150.318 80.2956C150.288 80.2684 150.274 80.2139 150.274 80.1322V79.7617C150.274 79.631 150.231 79.5165 150.143 79.413C150.056 79.3122 149.931 79.2605 149.773 79.2605C149.626 79.2605 149.503 79.3122 149.403 79.413C149.307 79.5165 149.261 79.6282 149.261 79.7508V82.1697C149.261 82.3004 149.307 82.4176 149.403 82.5183C149.503 82.6137 149.626 82.66 149.773 82.66C149.931 82.66 150.056 82.611 150.143 82.5075C150.231 82.4067 150.274 82.295 150.274 82.1697V81.8973C150.274 81.8265 150.285 81.7747 150.307 81.7447C150.329 81.7175 150.372 81.7012 150.438 81.7012H151.407C151.465 81.7012 151.505 81.7175 151.527 81.7447C151.549 81.7665 151.56 81.8101 151.56 81.8755V82.2133C151.56 82.4475 151.511 82.6654 151.418 82.867C151.331 83.0713 151.206 83.2484 151.048 83.4009C150.887 83.5535 150.694 83.6733 150.47 83.7605C150.244 83.8476 150.002 83.8912 149.74 83.8912Z" fill="#FF914D"/>
<path d="M152.369 78.1382H153.371C153.428 78.1382 153.475 78.1573 153.513 78.1927C153.556 78.2308 153.578 78.269 153.578 78.3126V83.597C153.578 83.657 153.559 83.7033 153.524 83.7387C153.486 83.7687 153.437 83.7823 153.371 83.7823H152.369C152.238 83.7823 152.173 83.7223 152.173 83.597V78.3126C152.173 78.2635 152.189 78.2227 152.227 78.1927C152.271 78.1573 152.317 78.1382 152.369 78.1382ZM153.611 76.7V77.4518C153.611 77.5553 153.584 77.6261 153.535 77.6697C153.483 77.7078 153.415 77.7242 153.328 77.7242H152.434C152.339 77.7242 152.263 77.7078 152.205 77.6697C152.145 77.6343 152.118 77.5662 152.118 77.4627V76.6891C152.118 76.6019 152.14 76.5338 152.184 76.4821C152.233 76.4249 152.317 76.3949 152.434 76.3949H153.328C153.428 76.3949 153.502 76.4221 153.546 76.4712C153.589 76.5229 153.611 76.5992 153.611 76.7Z" fill="#FF914D"/>
<path d="M154.512 83.7823C154.46 83.7823 154.417 83.7686 154.381 83.7387C154.352 83.7033 154.338 83.6515 154.338 83.5861V78.3343C154.338 78.269 154.352 78.2227 154.381 78.1927C154.417 78.1573 154.46 78.1382 154.512 78.1382H155.166C155.237 78.1382 155.291 78.1546 155.329 78.1818C155.365 78.2036 155.389 78.2472 155.406 78.3126L155.449 78.4869C155.602 78.3507 155.765 78.2417 155.94 78.16C156.114 78.081 156.299 78.0402 156.495 78.0402C156.806 78.0402 157.084 78.111 157.323 78.2472C157.569 78.3861 157.762 78.5822 157.901 78.8356C158.045 79.0916 158.119 79.3912 158.119 79.7399V83.597C158.119 83.657 158.1 83.7033 158.064 83.7387C158.026 83.7686 157.988 83.7823 157.944 83.7823H156.888C156.836 83.7823 156.792 83.7686 156.757 83.7387C156.727 83.7033 156.713 83.657 156.713 83.597V79.7835C156.713 79.6527 156.672 79.5329 156.593 79.4239C156.512 79.315 156.392 79.2605 156.234 79.2605C156.095 79.2605 155.978 79.3123 155.885 79.413C155.79 79.5165 155.738 79.6364 155.733 79.7726V83.5535C155.733 83.6352 155.705 83.6924 155.656 83.7278C155.613 83.7659 155.564 83.7823 155.515 83.7823H154.512Z" fill="#FF914D"/>
<path d="M158.653 81.9409C158.653 81.644 158.707 81.3906 158.816 81.1782C158.925 80.9684 159.07 80.7968 159.252 80.6661C159.432 80.5299 159.633 80.4263 159.851 80.361C160.069 80.2956 160.287 80.2629 160.505 80.2629H161.104V79.9142C161.104 79.7127 161.044 79.552 160.93 79.4348C160.813 79.3204 160.639 79.2605 160.407 79.2605C160.203 79.2605 160.031 79.2932 159.895 79.3586C159.764 79.4239 159.655 79.4948 159.568 79.5656C159.516 79.6092 159.465 79.631 159.416 79.631C159.356 79.631 159.309 79.6064 159.274 79.5547L158.871 78.9772C158.833 78.9282 158.816 78.8682 158.816 78.8029C158.816 78.732 158.86 78.6585 158.947 78.585C159.078 78.4842 159.219 78.3943 159.372 78.3126C159.524 78.2336 159.702 78.1682 159.906 78.1164C160.107 78.0674 160.344 78.0402 160.614 78.0402C160.859 78.0402 161.096 78.0728 161.322 78.1382C161.546 78.1982 161.747 78.2989 161.922 78.4433C162.096 78.5904 162.229 78.7865 162.325 79.0317C162.426 79.2714 162.477 79.5737 162.477 79.936V83.5752C162.477 83.6488 162.455 83.7033 162.412 83.7387C162.374 83.7686 162.338 83.7823 162.303 83.7823H161.736C161.649 83.7823 161.584 83.7659 161.54 83.7278C161.502 83.6924 161.469 83.627 161.442 83.5317L161.399 83.183C161.369 83.3137 161.295 83.4336 161.181 83.5426C161.072 83.6515 160.933 83.7387 160.767 83.8041C160.598 83.8749 160.421 83.913 160.233 83.913C160.05 83.913 159.865 83.8803 159.677 83.815C159.495 83.7577 159.323 83.6597 159.165 83.5208C159.012 83.3846 158.887 83.2021 158.794 82.976C158.699 82.7444 158.653 82.4611 158.653 82.1261V81.9409ZM160.679 81.3634C160.576 81.3634 160.475 81.3852 160.374 81.4288C160.271 81.4669 160.189 81.5323 160.124 81.6249C160.058 81.7121 160.026 81.8292 160.026 81.9736V82.1043C160.026 82.2868 160.075 82.4312 160.178 82.5401C160.279 82.6437 160.402 82.6927 160.549 82.6927C160.636 82.6927 160.718 82.6682 160.799 82.6164C160.886 82.5592 160.957 82.4693 161.017 82.344C161.074 82.2133 161.104 82.0471 161.104 81.8428V81.3634H160.679Z" fill="#FF914D"/>
<path d="M165.822 76.3731C165.822 76.2369 165.888 76.1661 166.018 76.1661H169.309C169.41 76.1661 169.461 76.2315 169.461 76.3622V77.2992C169.461 77.43 169.41 77.4954 169.309 77.4954H167.293V79.2714H168.895C168.944 79.2714 168.988 79.2877 169.026 79.315C169.061 79.3449 169.08 79.3912 169.08 79.4566V80.4046C169.08 80.4699 169.061 80.519 169.026 80.5462C168.996 80.5762 168.952 80.5898 168.895 80.5898H167.293V82.453H169.331C169.374 82.453 169.41 82.472 169.44 82.5075C169.475 82.5374 169.494 82.581 169.494 82.6382V83.597C169.494 83.657 169.475 83.7033 169.44 83.7387C169.41 83.7686 169.374 83.7823 169.331 83.7823H166.018C165.888 83.7823 165.822 83.7142 165.822 83.5752V76.3731Z" fill="#FF914D"/>
<path d="M171.312 79.7072C171.312 79.8244 171.339 79.9197 171.399 79.9905C171.464 80.0559 171.565 80.1267 171.704 80.1975C171.84 80.2711 172.031 80.3719 172.271 80.5026C172.663 80.7069 172.979 80.9548 173.219 81.2435C173.464 81.535 173.589 81.8646 173.589 82.2351C173.589 82.5565 173.513 82.8425 173.36 83.0958C173.208 83.3437 172.992 83.5398 172.717 83.6842C172.44 83.8204 172.118 83.8912 171.748 83.8912C171.369 83.8912 171.056 83.8422 170.811 83.7496C170.563 83.657 170.369 83.5289 170.233 83.3682C170.102 83.2102 170.007 83.0305 169.95 82.8343C169.898 82.6328 169.874 82.4257 169.874 82.2133V82.137C169.874 82.028 169.961 81.9736 170.135 81.9736H171.039C171.132 81.9736 171.181 82.0335 171.181 82.1479V82.2568C171.181 82.3876 171.23 82.4938 171.334 82.5728C171.434 82.6545 171.554 82.6927 171.693 82.6927C171.829 82.6927 171.946 82.6545 172.042 82.5728C172.143 82.4857 172.194 82.3713 172.194 82.2242C172.194 82.1315 172.153 82.0444 172.074 81.9627C172.001 81.8837 171.903 81.8074 171.78 81.7338C171.655 81.663 171.519 81.5868 171.366 81.505C171.219 81.426 171.075 81.3416 170.93 81.2544C170.734 81.1319 170.56 80.9984 170.407 80.8513C170.255 80.6987 170.135 80.5299 170.048 80.3392C169.966 80.1431 169.928 79.9224 169.928 79.6745C169.928 79.3695 170.004 79.0943 170.157 78.8465C170.309 78.6013 170.519 78.4052 170.789 78.2581C171.056 78.1137 171.366 78.0402 171.715 78.0402C172.107 78.0402 172.434 78.1137 172.696 78.2581C172.957 78.397 173.156 78.5931 173.295 78.8465C173.431 79.0943 173.502 79.3803 173.502 79.7072V79.8053C173.502 79.8652 173.483 79.9006 173.447 79.9142C173.417 79.9224 173.366 79.9251 173.295 79.9251H172.423C172.358 79.9251 172.309 79.9115 172.282 79.8816C172.26 79.8543 172.249 79.8135 172.249 79.7617V79.6854C172.249 79.5492 172.2 79.4403 172.107 79.3586C172.02 79.2714 171.911 79.2278 171.78 79.2278C171.633 79.2278 171.519 79.2768 171.432 79.3695C171.35 79.4648 171.312 79.5765 171.312 79.7072Z" fill="#FF914D"/>
<path d="M173.885 79.1624V78.3561C173.885 78.2853 173.902 78.2308 173.94 78.1927C173.975 78.1573 174.011 78.1382 174.049 78.1382H174.376V77.2992C174.376 77.2338 174.386 77.1848 174.408 77.1467C174.43 77.1113 174.468 77.0867 174.528 77.0704L175.552 76.7762C175.566 76.7708 175.585 76.7653 175.607 76.7653C175.716 76.7653 175.77 76.828 175.77 76.9505V78.1382H176.326C176.427 78.1382 176.478 78.209 176.478 78.3452V79.1624C176.478 79.2278 176.462 79.2795 176.435 79.3149C176.405 79.3531 176.361 79.3694 176.304 79.3694H175.77V82.0498C175.77 82.2105 175.806 82.3304 175.879 82.4094C175.95 82.4911 176.089 82.5292 176.293 82.5292H176.391C176.47 82.5292 176.517 82.5565 176.533 82.6055C176.547 82.6491 176.555 82.6927 176.555 82.7362V83.6079C176.555 83.646 176.538 83.6842 176.511 83.7278C176.481 83.7659 176.394 83.7822 176.25 83.7822H175.901C175.689 83.7822 175.49 83.7577 175.302 83.706C175.119 83.6569 174.956 83.5698 174.811 83.4445C174.672 83.3219 174.564 83.1557 174.485 82.9433C174.411 82.7253 174.376 82.4584 174.376 82.137V79.3694H174.049C174.019 79.3694 173.983 79.3558 173.94 79.3258C173.902 79.2904 173.885 79.236 173.885 79.1624Z" fill="#FF914D"/>
<path d="M177.083 82.2133V79.7072C177.083 79.4757 177.13 79.2605 177.225 79.0644C177.326 78.8628 177.459 78.683 177.628 78.5305C177.803 78.3779 178.001 78.2581 178.228 78.1709C178.451 78.0837 178.696 78.0402 178.958 78.0402C179.219 78.0402 179.459 78.0837 179.677 78.1709C179.895 78.2581 180.083 78.3779 180.243 78.5305C180.401 78.683 180.527 78.8628 180.614 79.0644C180.701 79.2605 180.744 79.4757 180.744 79.7072V81.0692C180.744 81.1346 180.723 81.1863 180.679 81.2217C180.641 81.2599 180.592 81.2762 180.527 81.2762H178.478V82.2133C178.478 82.3386 178.524 82.4502 178.62 82.551C178.712 82.6464 178.838 82.6927 178.99 82.6927C179.143 82.6927 179.263 82.6437 179.35 82.5401C179.437 82.4394 179.481 82.3277 179.481 82.2024V82.0389C179.481 82.0117 179.491 81.9817 179.513 81.9518C179.541 81.9245 179.581 81.9082 179.633 81.9082H180.592C180.636 81.9082 180.668 81.9191 180.69 81.9409C180.717 81.9627 180.734 82.0008 180.734 82.0498V82.2133C180.734 82.5183 180.657 82.7989 180.505 83.0522C180.358 83.3083 180.151 83.5099 179.884 83.6624C179.614 83.815 179.306 83.8912 178.958 83.8912C178.696 83.8912 178.451 83.8476 178.228 83.7605C178.001 83.6733 177.803 83.5535 177.628 83.4009C177.459 83.2484 177.326 83.0713 177.225 82.867C177.13 82.6654 177.083 82.4475 177.083 82.2133ZM178.478 79.7181V80.3392H179.481V79.729C179.481 79.5983 179.432 79.4866 179.339 79.3912C179.252 79.2905 179.135 79.2387 178.99 79.2387C178.838 79.2387 178.712 79.2905 178.62 79.3912C178.524 79.4866 178.478 79.5955 178.478 79.7181Z" fill="#FF914D"/>
<path d="M181.112 79.1624V78.3561C181.112 78.2853 181.129 78.2308 181.167 78.1927C181.202 78.1573 181.238 78.1382 181.276 78.1382H181.603V77.2992C181.603 77.2338 181.614 77.1848 181.635 77.1467C181.657 77.1113 181.695 77.0867 181.755 77.0704L182.779 76.7762C182.793 76.7708 182.812 76.7653 182.834 76.7653C182.943 76.7653 182.997 76.828 182.997 76.9505V78.1382H183.553C183.654 78.1382 183.706 78.209 183.706 78.3452V79.1624C183.706 79.2278 183.689 79.2795 183.662 79.3149C183.632 79.3531 183.588 79.3694 183.531 79.3694H182.997V82.0498C182.997 82.2105 183.033 82.3304 183.106 82.4094C183.177 82.4911 183.316 82.5292 183.52 82.5292H183.618C183.697 82.5292 183.744 82.5565 183.76 82.6055C183.774 82.6491 183.782 82.6927 183.782 82.7362V83.6079C183.782 83.646 183.765 83.6842 183.738 83.7278C183.708 83.7659 183.621 83.7822 183.477 83.7822H183.128C182.916 83.7822 182.717 83.7577 182.529 83.706C182.346 83.6569 182.183 83.5698 182.038 83.4445C181.9 83.3219 181.791 83.1557 181.712 82.9433C181.638 82.7253 181.603 82.4584 181.603 82.137V79.3694H181.276C181.246 79.3694 181.21 79.3558 181.167 79.3258C181.129 79.2904 181.112 79.236 181.112 79.1624Z" fill="#FF914D"/>
<path d="M184.594 78.1382H185.596C185.653 78.1382 185.7 78.1573 185.738 78.1927C185.782 78.2308 185.803 78.269 185.803 78.3126V83.597C185.803 83.657 185.784 83.7033 185.749 83.7387C185.711 83.7687 185.662 83.7823 185.596 83.7823H184.594C184.463 83.7823 184.398 83.7223 184.398 83.597V78.3126C184.398 78.2635 184.414 78.2227 184.452 78.1927C184.496 78.1573 184.542 78.1382 184.594 78.1382ZM185.836 76.7V77.4518C185.836 77.5553 185.809 77.6261 185.76 77.6697C185.708 77.7078 185.64 77.7242 185.553 77.7242H184.659C184.564 77.7242 184.488 77.7078 184.43 77.6697C184.371 77.6343 184.343 77.5662 184.343 77.4627V76.6891C184.343 76.6019 184.365 76.5338 184.409 76.4821C184.458 76.4249 184.542 76.3949 184.659 76.3949H185.553C185.653 76.3949 185.727 76.4221 185.771 76.4712C185.814 76.5229 185.836 76.5992 185.836 76.7Z" fill="#FF914D"/>
<path d="M188.35 83.8912C188.094 83.8912 187.851 83.8504 187.62 83.7714C187.394 83.6842 187.195 83.5698 187.02 83.4227C186.851 83.2702 186.718 83.0931 186.617 82.8888C186.522 82.6872 186.476 82.4611 186.476 82.2133V79.7072C186.476 79.4757 186.522 79.2605 186.617 79.0644C186.718 78.8628 186.851 78.683 187.02 78.5305C187.195 78.3779 187.394 78.2581 187.62 78.1709C187.851 78.0837 188.094 78.0402 188.35 78.0402C188.611 78.0402 188.854 78.0837 189.08 78.1709C189.303 78.2581 189.496 78.3779 189.657 78.5305C189.815 78.683 189.94 78.8628 190.028 79.0644C190.12 79.2605 190.169 79.4757 190.169 79.7072V80.1431C190.169 80.2166 190.153 80.2684 190.126 80.2956C190.104 80.3174 190.066 80.3283 190.017 80.3283H189.091C189.009 80.3283 188.954 80.3174 188.927 80.2956C188.897 80.2684 188.884 80.2139 188.884 80.1322V79.7617C188.884 79.631 188.84 79.5165 188.753 79.413C188.666 79.3122 188.54 79.2605 188.382 79.2605C188.235 79.2605 188.113 79.3122 188.012 79.413C187.917 79.5165 187.87 79.6282 187.87 79.7508V82.1697C187.87 82.3004 187.917 82.4176 188.012 82.5183C188.113 82.6137 188.235 82.66 188.382 82.66C188.54 82.66 188.666 82.611 188.753 82.5075C188.84 82.4067 188.884 82.295 188.884 82.1697V81.8973C188.884 81.8265 188.894 81.7747 188.916 81.7447C188.938 81.7175 188.982 81.7012 189.047 81.7012H190.017C190.074 81.7012 190.115 81.7175 190.137 81.7447C190.158 81.7665 190.169 81.8101 190.169 81.8755V82.2133C190.169 82.4475 190.12 82.6654 190.028 82.867C189.94 83.0713 189.815 83.2484 189.657 83.4009C189.496 83.5535 189.303 83.6733 189.08 83.7605C188.854 83.8476 188.611 83.8912 188.35 83.8912Z" fill="#FF914D"/>
<path d="M190.608 81.9409C190.608 81.644 190.662 81.3906 190.771 81.1782C190.88 80.9684 191.025 80.7968 191.207 80.6661C191.387 80.5299 191.589 80.4263 191.806 80.361C192.024 80.2956 192.242 80.2629 192.46 80.2629H193.059V79.9142C193.059 79.7127 193 79.552 192.885 79.4348C192.768 79.3204 192.594 79.2605 192.362 79.2605C192.158 79.2605 191.986 79.2932 191.85 79.3586C191.719 79.4239 191.61 79.4948 191.523 79.5656C191.471 79.6092 191.42 79.631 191.371 79.631C191.311 79.631 191.264 79.6064 191.229 79.5547L190.826 78.9772C190.788 78.9282 190.771 78.8682 190.771 78.8029C190.771 78.732 190.815 78.6585 190.902 78.585C191.033 78.4842 191.174 78.3943 191.327 78.3126C191.48 78.2336 191.657 78.1682 191.861 78.1164C192.063 78.0674 192.299 78.0402 192.569 78.0402C192.814 78.0402 193.051 78.0728 193.277 78.1382C193.501 78.1982 193.702 78.2989 193.877 78.4433C194.051 78.5904 194.184 78.7865 194.28 79.0317C194.381 79.2714 194.432 79.5737 194.432 79.936V83.5752C194.432 83.6488 194.411 83.7033 194.367 83.7387C194.329 83.7686 194.293 83.7823 194.258 83.7823H193.691C193.604 83.7823 193.539 83.7659 193.495 83.7278C193.457 83.6924 193.424 83.627 193.397 83.5317L193.354 83.183C193.324 83.3137 193.25 83.4336 193.136 83.5426C193.027 83.6515 192.888 83.7387 192.722 83.8041C192.553 83.8749 192.376 83.913 192.188 83.913C192.005 83.913 191.82 83.8803 191.632 83.815C191.45 83.7577 191.278 83.6597 191.12 83.5208C190.967 83.3846 190.842 83.2021 190.75 82.976C190.654 82.7444 190.608 82.4611 190.608 82.1261V81.9409ZM192.635 81.3634C192.531 81.3634 192.43 81.3852 192.329 81.4288C192.226 81.4669 192.144 81.5323 192.079 81.6249C192.013 81.7121 191.981 81.8292 191.981 81.9736V82.1043C191.981 82.2868 192.03 82.4312 192.133 82.5401C192.234 82.6437 192.357 82.6927 192.504 82.6927C192.591 82.6927 192.673 82.6682 192.754 82.6164C192.842 82.5592 192.912 82.4693 192.972 82.344C193.03 82.2133 193.059 82.0471 193.059 81.8428V81.3634H192.635Z" fill="#FF914D"/>
<path d="M24.5576 59.7843C23.3291 59.7843 22.2504 59.5528 21.3216 59.087C20.39 58.6239 19.6218 57.9974 19.0117 57.2129C18.4069 56.4284 17.9493 55.5568 17.6388 54.5979C17.3337 53.6336 17.1812 52.6557 17.1812 51.6669V42.3728C17.1812 40.7548 17.4427 39.2893 17.9657 37.9818C18.4941 36.6743 19.3276 35.6364 20.4608 34.8656C21.594 34.0892 23.0812 33.6997 24.9281 33.6997C25.8433 33.6997 26.7314 33.9122 27.5976 34.3317C28.4692 34.7539 29.2755 35.3232 30.0164 36.0423L30.3324 34.9963C30.5068 34.4679 30.8908 34.2009 31.4874 34.2009H34.4184C34.6635 34.2009 34.8596 34.2745 35.0067 34.4188C35.1593 34.5578 35.2355 34.7757 35.2355 35.0726V58.6185C35.2355 60.6614 34.9849 62.3694 34.4837 63.7504C33.9825 65.1287 33.2906 66.2265 32.4135 67.041C31.5337 67.8527 30.5285 68.4411 29.3954 68.8061C28.2622 69.1684 27.0637 69.3509 25.7998 69.3509C24.514 69.3509 23.2202 69.1929 21.9208 68.8824C20.627 68.5773 19.442 68.0461 18.3688 67.2916C17.933 66.9919 17.7042 66.6977 17.6824 66.409C17.666 66.1175 17.7205 65.8588 17.8458 65.6354L19.186 62.6826C19.344 62.383 19.5564 62.2359 19.8179 62.2359C19.9051 62.2359 19.9977 62.2577 20.1012 62.3013C20.2102 62.3449 20.3192 62.3993 20.4281 62.4647C20.9348 62.857 21.5831 63.1947 22.3676 63.478C23.1575 63.7668 24.0128 63.9139 24.9281 63.9139C25.6309 63.9139 26.2574 63.7831 26.8022 63.5216C27.347 63.2601 27.7746 62.8161 28.0879 62.1923C28.4066 61.5658 28.5673 60.7295 28.5673 59.6754V58.4659C28.0225 58.8745 27.4123 59.196 26.7368 59.4357C26.0613 59.6699 25.334 59.7843 24.5576 59.7843ZM23.8494 51.6669C23.8494 52.2853 24.0619 52.8192 24.4923 53.2686C24.9281 53.7126 25.4511 53.9333 26.0613 53.9333C26.8512 53.9333 27.4668 53.6799 27.9027 53.1706C28.3439 52.6639 28.5673 52.0565 28.5673 51.351V41.9152C28.5455 41.2832 28.3167 40.733 27.8809 40.259C27.445 39.7878 26.8567 39.5508 26.1157 39.5508C25.4974 39.5508 24.9635 39.7769 24.514 40.2263C24.07 40.6703 23.8494 41.2015 23.8494 41.8171V51.6669Z" fill="#FF914D"/>
<path d="M135.92 43.1891V38.5475C135.92 38.1334 136.029 37.8284 136.247 37.6322C136.465 37.4307 136.667 37.3271 136.857 37.3271H138.71V32.533C138.71 32.1789 138.77 31.901 138.895 31.7049C139.026 31.5033 139.257 31.3562 139.592 31.2691L145.454 29.5475C145.52 29.5257 145.612 29.5148 145.738 29.5148C146.361 29.5148 146.675 29.8608 146.675 30.5499V37.3271H149.845C150.434 37.3271 150.728 37.7167 150.728 38.493V43.1891C150.728 43.5323 150.635 43.8102 150.455 44.0281C150.281 44.246 150.047 44.355 149.758 44.355H146.675V59.6309C146.675 60.5108 146.884 61.1863 147.307 61.6575C147.726 62.1233 148.511 62.3549 149.66 62.3549H150.194C150.652 62.3549 150.919 62.4938 151 62.7689C151.087 63.0386 151.131 63.2892 151.131 63.5207V68.4783C151.131 68.6908 151.049 68.9114 150.891 69.143C150.739 69.3691 150.243 69.4808 149.409 69.4808H147.437C146.222 69.4808 145.087 69.3364 144.027 69.0449C142.973 68.748 142.047 68.2495 141.248 67.5522C140.456 66.8549 139.835 65.9015 139.385 64.6866C138.933 63.4744 138.71 61.9463 138.71 60.0994V44.355H136.857C136.689 44.355 136.49 44.2569 136.258 44.0608C136.032 43.8592 135.92 43.5677 135.92 43.1891Z" fill="#FF914D"/>
</svg>
