<svg width="28" height="28" viewBox="0 0 28 28" fill="none" xmlns="http://www.w3.org/2000/svg">
<g clip-path="url(#clip0_86_571)">
<mask id="mask0_86_571" style="mask-type:luminance" maskUnits="userSpaceOnUse" x="0" y="0" width="28" height="28">
<path d="M28 0H0V28H28V0Z" fill="white"/>
</mask>
<g mask="url(#mask0_86_571)">
<path d="M14 0C21.73 0 28 6.27007 28 14C28 21.73 21.73 28 14 28C6.27007 28 0 21.73 0 14C0 6.27007 6.27007 0 14 0Z" fill="white"/>
<path d="M14 28C6.28206 28 0 21.7179 0 14C0 6.28206 6.28206 0 14 0C21.7179 0 28 6.28206 28 14C28 21.7179 21.7179 28 14 28ZM14 0.460224C6.53516 0.460224 0.460224 6.53516 0.460224 14C0.460224 21.4648 6.53516 27.5398 14 27.5398C21.4648 27.5398 27.5398 21.4648 27.5398 14C27.5398 6.53516 21.4648 0.460224 14 0.460224Z" fill="#FF914D"/>
<path d="M20.7805 7.4375H7.21954C6.85598 7.4375 6.5625 7.14437 6.5625 6.78125C6.5625 6.41813 6.85598 6.125 7.21954 6.125H20.7805C21.144 6.125 21.4375 6.41813 21.4375 6.78125C21.4375 7.14437 21.144 7.4375 20.7805 7.4375Z" fill="#FF914D"/>
<path d="M22.1003 10.9375H5.89973C5.54024 10.9375 5.25 10.6444 5.25 10.2812C5.25 9.91813 5.54024 9.625 5.89973 9.625H22.1003C22.4598 9.625 22.75 9.91813 22.75 10.2812C22.75 10.6444 22.4598 10.9375 22.1003 10.9375Z" fill="#FF914D"/>
<path d="M23.3986 14.4375H4.60583C4.23601 14.4375 3.9375 14.1444 3.9375 13.7812C3.9375 13.4181 4.23601 13.125 4.60583 13.125H23.3942C23.764 13.125 24.0625 13.4181 24.0625 13.7812C24.0625 14.1444 23.764 14.4375 23.3942 14.4375H23.3986Z" fill="#FF914D"/>
<path d="M20.7805 21.4375H7.21954C6.85598 21.4375 6.5625 21.1444 6.5625 20.7812C6.5625 20.4181 6.85598 20.125 7.21954 20.125H20.7805C21.144 20.125 21.4375 20.4181 21.4375 20.7812C21.4375 21.1444 21.144 21.4375 20.7805 21.4375Z" fill="#FF914D"/>
<path d="M22.1003 17.9375H5.89973C5.54024 17.9375 5.25 17.6444 5.25 17.2812C5.25 16.9181 5.54024 16.625 5.89973 16.625H22.1003C22.4598 16.625 22.75 16.9181 22.75 17.2812C22.75 17.6444 22.4598 17.9375 22.1003 17.9375Z" fill="#FF914D"/>
</g>
</g>
<defs>
<clipPath id="clip0_86_571">
<rect width="28" height="28" fill="white"/>
</clipPath>
</defs>
</svg>
