<svg width="29" height="28" viewBox="0 0 29 28" fill="none" xmlns="http://www.w3.org/2000/svg">
<g clip-path="url(#clip0_86_574)">
<mask id="mask0_86_574" style="mask-type:luminance" maskUnits="userSpaceOnUse" x="0" y="0" width="29" height="28">
<path d="M28.667 0H0.666992V28H28.667V0Z" fill="white"/>
</mask>
<g mask="url(#mask0_86_574)">
<path d="M14.667 0C22.397 0 28.667 6.27003 28.667 14C28.667 21.73 22.397 28 14.667 28C6.93707 28 0.666992 21.73 0.666992 14C0.666992 6.26539 6.93707 0 14.667 0Z" fill="white"/>
<path d="M14.5304 21.4375C12.1878 21.4375 10.2804 19.5136 10.2804 17.1509C10.2804 16.9174 10.2989 16.6839 10.336 16.4551H1.10449V15.75H11.2202L11.0999 16.1983C11.0165 16.5065 10.9702 16.8287 10.9702 17.1509C10.9702 19.1261 12.5675 20.7371 14.5258 20.7371C16.4841 20.7371 18.0813 19.1261 18.0813 17.1509C18.0813 16.8287 18.0397 16.5065 17.9563 16.1983L17.836 15.7547H28.2295V16.4598H18.7202C18.7573 16.6839 18.7758 16.9174 18.7758 17.1509C18.7758 19.5136 16.8684 21.4375 14.5258 21.4375H14.5304Z" fill="#FF914D"/>
<path d="M21.7109 3.0625C20.9607 3.62078 20.2012 4.10063 19.5437 4.69123C17.293 6.69826 16.2418 9.28204 16.0704 12.2395C16.0195 13.0746 16.0935 13.9236 16.1445 14.7634C16.1584 14.9618 16.2649 15.1924 16.4038 15.3401C17.4134 16.4151 17.4643 18.0254 16.5011 19.0589C15.5378 20.0924 13.9123 20.1939 12.8148 19.2896C11.7126 18.376 11.5552 16.7934 12.4304 15.5984C12.5694 15.4047 12.6574 15.1463 12.6944 14.9064C13.1112 12.0781 14.0235 9.44352 15.7925 7.15501C17.3208 5.1849 19.3074 3.86993 21.7063 3.06712L21.7109 3.0625Z" fill="#FF914D"/>
<path d="M14.667 28C8.07199 28 2.30999 23.3195 0.961535 16.8764C0.763639 15.9376 0.666992 14.9711 0.666992 14C0.666992 6.28206 6.94905 0 14.667 0C22.3849 0 28.667 6.28206 28.667 14C28.667 21.7179 22.3849 28 14.667 28ZM14.667 0.460224C7.20215 0.460224 1.12722 6.53516 1.12722 14C1.12722 14.9342 1.22386 15.8731 1.41255 16.7797C2.71499 23.0158 8.28829 27.5398 14.667 27.5398C22.1318 27.5398 28.2068 21.4648 28.2068 14C28.2068 6.53516 22.1318 0.460224 14.667 0.460224Z" fill="#FF914D"/>
</g>
</g>
<defs>
<clipPath id="clip0_86_574">
<rect width="28" height="28" fill="white" transform="translate(0.666992)"/>
</clipPath>
</defs>
</svg>
