<svg width="28" height="28" viewBox="0 0 28 28" fill="none" xmlns="http://www.w3.org/2000/svg">
<g clip-path="url(#clip0_86_570)">
<mask id="mask0_86_570" style="mask-type:luminance" maskUnits="userSpaceOnUse" x="0" y="0" width="28" height="28">
<path d="M28 0H0V28H28V0Z" fill="white"/>
</mask>
<g mask="url(#mask0_86_570)">
<path d="M14 0C21.7299 0 28 6.27003 28 14C28 21.7299 21.7299 28 14 28C6.27003 28 0 21.7299 0 14C0 6.26539 6.26539 0 14 0Z" fill="white"/>
<path d="M14 28C6.28206 28 0 21.7179 0 14C0 6.28206 6.28206 0 14 0C21.7179 0 28 6.28206 28 14C28 21.7179 21.7179 28 14 28ZM14 0.460224C6.53516 0.460224 0.460224 6.53516 0.460224 14C0.460224 21.4648 6.53516 27.5398 14 27.5398C21.4648 27.5398 27.5398 21.4648 27.5398 14C27.5398 6.53516 21.4694 0.460224 14 0.460224Z" fill="#FF914D"/>
<path d="M17.368 19.8302L16.5367 19.5992L16.7676 20.4305C15.9363 21.1695 14.9665 21.6313 13.9043 21.6313C12.8882 21.6313 11.9184 21.1695 11.0409 20.4305L11.2718 19.5992L10.4405 19.8302C8.91643 18.1676 7.90039 15.5813 7.90039 13.5954C7.90039 12.3946 8.26986 11.24 8.91643 10.2702L10.3943 10.6858L9.97865 9.11557C11.0409 8.1919 12.4264 7.6377 13.9504 7.6377C15.4745 7.6377 16.86 8.1919 17.9222 9.11557L17.5066 10.6858L18.9844 10.2702C19.631 11.24 20.0005 12.3484 20.0005 13.5954C19.9081 15.5813 18.9383 18.1214 17.368 19.8302Z" stroke="#FF914D" stroke-width="0.8" stroke-miterlimit="10" stroke-linecap="round" stroke-linejoin="round"/>
<path d="M11.4098 15.3505C12.2515 15.3505 12.9339 14.937 12.9339 14.4268C12.9339 13.9167 12.2515 13.5032 11.4098 13.5032C10.5681 13.5032 9.88574 13.9167 9.88574 14.4268C9.88574 14.937 10.5681 15.3505 11.4098 15.3505Z" stroke="#FF914D" stroke-width="0.8" stroke-miterlimit="10" stroke-linecap="round" stroke-linejoin="round"/>
<path d="M16.444 15.3505C17.2857 15.3505 17.968 14.937 17.968 14.4268C17.968 13.9167 17.2857 13.5032 16.444 13.5032C15.6023 13.5032 14.9199 13.9167 14.9199 14.4268C14.9199 14.937 15.6023 15.3505 16.444 15.3505Z" stroke="#FF914D" stroke-width="0.8" stroke-miterlimit="10" stroke-linecap="round" stroke-linejoin="round"/>
<path d="M13.9041 18.9991C14.6693 18.9991 15.2896 18.7303 15.2896 18.3987C15.2896 18.0672 14.6693 17.7983 13.9041 17.7983C13.1389 17.7983 12.5186 18.0672 12.5186 18.3987C12.5186 18.7303 13.1389 18.9991 13.9041 18.9991Z" stroke="#FF914D" stroke-width="0.8" stroke-miterlimit="10" stroke-linecap="round" stroke-linejoin="round"/>
</g>
</g>
<defs>
<clipPath id="clip0_86_570">
<rect width="28" height="28" fill="white"/>
</clipPath>
</defs>
</svg>
