<svg width="29" height="28" viewBox="0 0 29 28" fill="none" xmlns="http://www.w3.org/2000/svg">
<g clip-path="url(#clip0_86_573)">
<mask id="mask0_86_573" style="mask-type:luminance" maskUnits="userSpaceOnUse" x="0" y="0" width="29" height="28">
<path d="M28.667 0H0.666992V28H28.667V0Z" fill="white"/>
</mask>
<g mask="url(#mask0_86_573)">
<path d="M14.667 0C22.3969 0 28.667 6.27003 28.667 14C28.667 21.7299 22.3969 28 14.667 28C6.93702 28 0.666992 21.7299 0.666992 14C0.666992 6.26539 6.93239 0 14.667 0Z" fill="white"/>
<path d="M14.667 28C6.94905 28 0.666992 21.7179 0.666992 14C0.666992 6.28206 6.94905 0 14.667 0C22.3849 0 28.667 6.28206 28.667 14C28.667 21.7179 22.3849 28 14.667 28ZM14.667 0.460224C7.20215 0.460224 1.12722 6.53516 1.12722 14C1.12722 21.4648 7.20215 27.5398 14.667 27.5398C22.1318 27.5398 28.2068 21.4648 28.2068 14C28.2068 6.53516 22.1364 0.460224 14.667 0.460224Z" fill="#FF914D"/>
<path d="M21.5629 18.0568C21.7118 17.8951 21.699 17.6439 21.5373 17.4949C21.3757 17.3459 21.1247 17.3587 20.9758 17.5205L19.8569 18.64L18.8742 17.6567L20.6908 15.839C20.6908 15.839 20.7078 15.822 20.7163 15.8134C20.8652 15.6517 20.8524 15.4005 20.6908 15.2515C20.5291 15.1025 20.2781 15.1153 20.1292 15.2771L16.913 18.4953L15.7899 17.3715L16.3472 16.8138C16.3472 16.8138 16.3642 16.7968 16.3727 16.7883C16.5217 16.6265 16.5089 16.3754 16.3472 16.2263C16.1856 16.0774 15.9346 16.0902 15.7856 16.2519L15.2284 16.8095L14.386 15.9667L14.9433 15.4091C14.9433 15.4091 14.9603 15.392 14.9688 15.3835C15.1178 15.2217 15.105 14.9706 14.9433 14.8216C14.7817 14.6726 14.5307 14.6853 14.3818 14.8471L13.8245 15.4048L12.9821 14.5619L13.5394 14.0042C13.5394 14.0042 13.5565 13.9872 13.565 13.9787C13.7139 13.8169 13.7011 13.5658 13.5394 13.4168C13.3778 13.2678 13.1268 13.2806 12.9779 13.4424L12.4206 14L11.5783 13.1571L12.1355 12.5995C12.1355 12.5995 12.1526 12.5825 12.1611 12.5739C12.31 12.4122 12.2972 12.161 12.1355 12.012C11.9739 11.863 11.7229 11.8758 11.574 12.0375L11.0167 12.5952L10.4424 12.0205L10.553 9.89209L12.6801 9.7814L18.3042 15.4091C18.4573 15.5666 18.7083 15.5708 18.8657 15.4175C19.0231 15.2643 19.0273 15.0132 18.8742 14.8556C18.8742 14.8556 18.8699 14.8514 18.8657 14.8471L13.114 9.09177C13.0332 9.01516 12.9268 8.97259 12.8162 8.97684L10.3318 9.10454L8.34933 7.12083C8.19616 6.96333 7.94517 6.95909 7.78775 7.1123C7.63034 7.26556 7.6261 7.51673 7.77927 7.67423C7.77927 7.67423 7.78351 7.67847 7.78775 7.68276L9.77024 9.66647L9.64258 12.1525C9.63833 12.2632 9.6809 12.3696 9.75747 12.4505L16.3515 19.0487L15.9303 19.4701C15.7729 19.6234 15.7686 19.8745 15.9218 20.032C16.075 20.1895 16.326 20.1938 16.4833 20.0406C16.4833 20.0406 16.4876 20.0363 16.4919 20.032L18.3084 18.2143L19.2911 19.1977L18.1723 20.3172C18.0148 20.4705 18.0106 20.7217 18.1638 20.8792C18.3169 21.0367 18.5679 21.0409 18.7253 20.8877C18.7253 20.8877 18.7296 20.8834 18.7338 20.8792L21.5288 18.0824C21.5288 18.0824 21.5459 18.0653 21.5543 18.0568H21.5629Z" fill="#FF914D"/>
</g>
</g>
<defs>
<clipPath id="clip0_86_573">
<rect width="28" height="28" fill="white" transform="translate(0.666992)"/>
</clipPath>
</defs>
</svg>
