<svg width="48" height="48" viewBox="0 0 48 48" fill="none" xmlns="http://www.w3.org/2000/svg">
<path d="M22.8384 6.66221L22.1803 17.8726L15.8557 5.16505L20.6463 18.1073L12.5607 10.9175C9.21355 7.94309 10.0679 2.45911 14.1928 0.719574C14.2618 0.690428 14.3294 0.661274 14.3984 0.633662C18.5708 -1.08286 23.1037 2.15845 22.8384 6.66221Z" fill="#FF914D"/>
<path d="M41.3367 22.8381L30.1248 22.18L42.8339 15.8555L29.8932 20.6445L37.0815 12.5589C40.0558 9.21333 45.5398 10.0662 47.2809 14.1926C47.3085 14.2601 47.3376 14.3292 47.3668 14.3982C49.0833 18.5706 45.8404 23.1035 41.3367 22.8381Z" fill="#FF914D"/>
<path d="M35.44 10.9175L27.0445 18.3818L31.559 4.92269L25.7958 17.4614L25.1607 6.66221C24.8969 2.15845 29.4283 -1.08286 33.6007 0.633662C33.6697 0.661274 33.7388 0.690428 33.8078 0.719574C37.9327 2.45911 38.7856 7.94309 35.44 10.9175Z" fill="#FF914D"/>
<path d="M4.92304 16.4401L17.4603 22.2033L6.66255 22.8383C2.15878 23.1037 -1.08249 18.5708 0.634032 14.3984C0.661644 14.3293 0.690798 14.2603 0.719944 14.1928C2.45948 10.0664 7.94346 9.2135 10.9178 12.5607L18.3821 20.9546L4.92304 16.4401Z" fill="#FF914D"/>
<path d="M33.8078 47.28C33.7388 47.3091 33.6697 47.3383 33.6007 47.3659C29.4283 49.0824 24.8969 45.8411 25.1607 41.3374L25.8188 30.1255L32.1434 42.8345L27.3544 29.8923L35.44 37.0821C38.7856 40.0565 37.9327 45.5405 33.8078 47.28Z" fill="#FF914D"/>
<path d="M47.3667 33.6012C47.3376 33.6702 47.3084 33.7392 47.2808 33.8082C45.5397 37.9331 40.0558 38.786 37.0814 35.4404L29.617 27.0434L43.0761 31.5594L30.5389 25.7963L41.3366 25.1612C45.8404 24.8958 49.0832 29.4287 47.3667 33.6012Z" fill="#FF914D"/>
<path d="M14.3985 47.3656C14.3295 47.338 14.2619 47.3088 14.1929 47.2797C10.068 45.5401 9.21367 40.0561 12.5608 37.0818L20.9563 29.6174L16.4418 43.0766L22.205 30.5408L22.8385 41.337C23.1039 45.8408 18.5709 49.0821 14.3985 47.3656Z" fill="#FF914D"/>
<path d="M18.1061 27.3548L10.9178 35.4404C7.94346 38.786 2.45948 37.9331 0.719944 33.8082C0.690798 33.7392 0.661643 33.6702 0.634032 33.6012C-1.08249 29.4287 2.15878 24.8958 6.66255 25.1612L17.8744 25.8193L5.16542 32.1439L18.1061 27.3548Z" fill="#FF914D"/>
</svg>
