<svg width="28" height="28" viewBox="0 0 28 28" fill="none" xmlns="http://www.w3.org/2000/svg">
<g clip-path="url(#clip0_86_569)">
<mask id="mask0_86_569" style="mask-type:luminance" maskUnits="userSpaceOnUse" x="0" y="0" width="28" height="28">
<path d="M28 0H0V28H28V0Z" fill="white"/>
</mask>
<g mask="url(#mask0_86_569)">
<path d="M14 0C21.7299 0 28 6.27003 28 14C28 21.7299 21.7299 28 14 28C6.27003 28 0 21.7299 0 14C0 6.26539 6.26539 0 14 0Z" fill="white"/>
<path d="M14 28C6.28206 28 0 21.7179 0 14C0 6.28206 6.28206 0 14 0C21.7179 0 28 6.28206 28 14C28 21.7179 21.7179 28 14 28ZM14 0.460224C6.53516 0.460224 0.460224 6.53516 0.460224 14C0.460224 21.4648 6.53516 27.5398 14 27.5398C21.4648 27.5398 27.5398 21.4648 27.5398 14C27.5398 6.53516 21.4694 0.460224 14 0.460224Z" fill="#FF914D"/>
<path d="M16.6712 7.768C16.6712 7.768 16.3673 9.67779 15.4993 10.4157C14.6312 11.1535 15.4993 13.4974 15.4993 13.4974C15.4993 13.4974 16.3673 14.8863 14.3707 15.711C12.3742 16.5356 11.6797 18.3152 10.7682 18.9663C10.0303 19.5305 9.07544 20.0948 8.29417 19.6173C7.99034 19.4437 7.90353 19.0097 8.12055 18.7058C9.16225 17.4037 12.2005 13.1501 12.5912 7.72461" stroke="#FF914D" stroke-width="0.8" stroke-miterlimit="10" stroke-linecap="round" stroke-linejoin="round"/>
<path d="M20.1 7.55103C20.1 7.55103 19.8829 9.46081 19.1017 10.2855C18.3204 11.1102 19.2753 13.3672 19.2753 13.3672C19.2753 13.3672 20.2302 14.7127 18.277 15.6242C16.3238 16.5791 15.7161 18.3587 14.8481 19.0965C14.1102 19.7042 13.2421 20.3118 12.374 19.8778" stroke="#FF914D" stroke-width="0.8" stroke-miterlimit="10" stroke-linecap="round" stroke-linejoin="round"/>
</g>
</g>
<defs>
<clipPath id="clip0_86_569">
<rect width="28" height="28" fill="white"/>
</clipPath>
</defs>
</svg>
