<svg width="28" height="28" viewBox="0 0 28 28" fill="none" xmlns="http://www.w3.org/2000/svg">
<g clip-path="url(#clip0_86_566)">
<mask id="mask0_86_566" style="mask-type:luminance" maskUnits="userSpaceOnUse" x="0" y="0" width="28" height="28">
<path d="M28 0H0V28H28V0Z" fill="white"/>
</mask>
<g mask="url(#mask0_86_566)">
<path d="M14 0C21.7299 0 28 6.27003 28 14C28 21.7299 21.7299 28 14 28C6.27003 28 0 21.7299 0 14C0 6.27003 6.26539 0 14 0Z" fill="white"/>
<path d="M14 28C6.28206 28 0 21.7179 0 14C0 6.28206 6.28206 0 14 0C21.7179 0 28 6.28206 28 14C28 21.7179 21.7179 28 14 28ZM14 0.460224C6.53516 0.460224 0.460224 6.53056 0.460224 14C0.460224 21.4694 6.53516 27.5398 14 27.5398C21.4648 27.5398 27.5398 21.4648 27.5398 14C27.5398 6.53516 21.4648 0.460224 14 0.460224Z" fill="#FF914D"/>
<path d="M14.0017 14.4375C10.3008 14.4375 7.39051 13.2212 5.5835 12.1868C5.27078 12.0093 5.15782 11.6009 5.33159 11.2812C5.50532 10.9616 5.90493 10.8462 6.2177 11.0238C7.92478 12.0004 10.7048 13.1546 14.2406 13.1013C17.5636 13.048 20.1785 11.9427 21.7814 11.0238C22.0941 10.8418 22.4938 10.9572 22.6675 11.2812C22.8413 11.6009 22.7327 12.0093 22.4156 12.1868C20.6781 13.1812 17.8503 14.3798 14.2537 14.4331C14.1668 14.4331 14.0799 14.4331 13.993 14.4331L14.0017 14.4375Z" fill="#FF914D"/>
<path d="M14.216 11.375C10.9773 11.375 8.4335 10.1452 6.86003 9.10184C6.55846 8.90204 6.47105 8.48917 6.66771 8.17837C6.86441 7.87203 7.27089 7.78322 7.57683 7.98302C9.03668 8.95091 11.4187 10.0919 14.4214 10.0386C17.2537 9.98979 19.4871 8.89316 20.8596 7.98302C21.1611 7.78322 21.5676 7.86757 21.7687 8.17837C21.9653 8.4847 21.8823 8.89762 21.5764 9.10184C20.0597 10.1052 17.5902 11.3173 14.4433 11.375C14.369 11.375 14.2903 11.375 14.216 11.375Z" fill="#FF914D"/>
<path d="M22.0943 17.5H5.90135C5.54094 17.5 5.25 17.2069 5.25 16.8438C5.25 16.4806 5.54094 16.1875 5.90135 16.1875H22.0986C22.4591 16.1875 22.75 16.4806 22.75 16.8438C22.75 17.2069 22.4591 17.5 22.0986 17.5H22.0943Z" fill="#FF914D"/>
<path d="M6.125 20.125C7 20.125 7 18.8125 6.125 18.8125C5.25 18.8125 5.25 20.125 6.125 20.125Z" fill="#FF914D"/>
<path d="M8.75 20.125C9.625 20.125 9.625 18.8125 8.75 18.8125C7.875 18.8125 7.875 20.125 8.75 20.125Z" fill="#FF914D"/>
<path d="M11.375 20.125C12.25 20.125 12.25 18.8125 11.375 18.8125C10.5 18.8125 10.5 20.125 11.375 20.125Z" fill="#FF914D"/>
<path d="M14 20.125C14.875 20.125 14.875 18.8125 14 18.8125C13.125 18.8125 13.125 20.125 14 20.125Z" fill="#FF914D"/>
<path d="M16.625 20.125C17.5 20.125 17.5 18.8125 16.625 18.8125C15.75 18.8125 15.75 20.125 16.625 20.125Z" fill="#FF914D"/>
<path d="M19.25 20.125C20.125 20.125 20.125 18.8125 19.25 18.8125C18.375 18.8125 18.375 20.125 19.25 20.125Z" fill="#FF914D"/>
<path d="M21.875 20.125C22.75 20.125 22.75 18.8125 21.875 18.8125C21 18.8125 21 20.125 21.875 20.125Z" fill="#FF914D"/>
</g>
</g>
<defs>
<clipPath id="clip0_86_566">
<rect width="28" height="28" fill="white"/>
</clipPath>
</defs>
</svg>
