<svg width="28" height="28" viewBox="0 0 28 28" fill="none" xmlns="http://www.w3.org/2000/svg">
<g clip-path="url(#clip0_86_568)">
<mask id="mask0_86_568" style="mask-type:luminance" maskUnits="userSpaceOnUse" x="0" y="0" width="28" height="28">
<path d="M28 0H0V28H28V0Z" fill="white"/>
</mask>
<g mask="url(#mask0_86_568)">
<path d="M14 0C21.7299 0 28 6.27003 28 14C28 21.7299 21.7299 28 14 28C6.27003 28 0 21.7299 0 14C0 6.26539 6.26539 0 14 0Z" fill="white"/>
<path d="M14 28C6.28206 28 0 21.7179 0 14C0 6.28206 6.28206 0 14 0C21.7179 0 28 6.28206 28 14C28 21.7179 21.7179 28 14 28ZM14 0.460224C6.53516 0.460224 0.460224 6.53516 0.460224 14C0.460224 21.4648 6.53516 27.5398 14 27.5398C21.4648 27.5398 27.5398 21.4648 27.5398 14C27.5398 6.53516 21.4694 0.460224 14 0.460224Z" fill="#FF914D"/>
<path d="M18.7674 12.3882C18.8257 12.5631 18.8257 12.7963 18.8257 12.9711C18.8257 14.0788 18.4176 15.2447 17.5432 16.0608L12.2383 21.3657" stroke="#FF914D" stroke-width="0.860757" stroke-miterlimit="10" stroke-linecap="round" stroke-linejoin="round"/>
<path d="M6 15.128L11.3049 9.82312C12.2959 8.8321 13.695 8.42403 14.9775 8.59892" stroke="#FF914D" stroke-width="0.860757" stroke-miterlimit="10" stroke-linecap="round" stroke-linejoin="round"/>
<path d="M20.1655 10.9306L16.7844 14.3117C16.4929 14.6032 16.1431 14.7781 15.7351 14.8364C15.0938 14.953 14.4526 14.7781 13.9862 14.3117L12.9952 13.3207C12.5288 12.8543 12.3539 12.2131 12.4705 11.5718C12.5288 11.1638 12.7037 10.814 12.9952 10.5225L16.3763 7.1414C17.1925 6.32526 18.5915 6.32526 19.4077 7.1414L20.1072 7.84094C21.04 8.71537 21.04 10.1145 20.1655 10.9306Z" stroke="#FF914D" stroke-width="0.860757" stroke-miterlimit="10" stroke-linecap="round" stroke-linejoin="round"/>
<path d="M15.7351 14.8946C15.0938 15.0112 14.4526 14.8363 13.9862 14.37L12.9952 13.3789C12.5288 12.9126 12.3539 12.2713 12.4705 11.6301C12.6454 11.5718 12.8203 11.5718 13.0535 11.5718C14.5692 11.5718 15.8517 12.796 15.8517 14.37C15.7934 14.4866 15.7934 14.7197 15.7351 14.8946Z" stroke="#FF914D" stroke-width="0.860757" stroke-miterlimit="10" stroke-linecap="round" stroke-linejoin="round"/>
</g>
</g>
<defs>
<clipPath id="clip0_86_568">
<rect width="28" height="28" fill="white"/>
</clipPath>
</defs>
</svg>
