<svg width="24" height="24" viewBox="0 0 24 24" fill="none" xmlns="http://www.w3.org/2000/svg">
<path d="M11.4187 3.33105L11.0897 8.93622L7.92735 2.58246L10.3227 9.05357L6.27986 5.45868C4.60629 3.97148 5.03347 1.22949 7.09591 0.359726C7.13042 0.345153 7.1642 0.330576 7.19871 0.31677C9.28493 -0.541492 11.5514 1.07916 11.4187 3.33105Z" fill="#FF914D"/>
<path d="M20.6679 11.419L15.0619 11.09L21.4165 7.92767L14.9461 10.3222L18.5402 6.27941C20.0274 4.6066 22.7694 5.03304 23.6399 7.09625C23.6537 7.12999 23.6683 7.16452 23.6829 7.19903C24.5412 9.28524 22.9197 11.5517 20.6679 11.419Z" fill="#FF914D"/>
<path d="M17.7195 5.45868L13.5218 9.19084L15.779 2.46128L12.8974 8.73066L12.5799 3.33105C12.448 1.07916 14.7136 -0.541492 16.7999 0.31677C16.8344 0.330576 16.8689 0.345153 16.9034 0.359726C18.9658 1.22949 19.3923 3.97148 17.7195 5.45868Z" fill="#FF914D"/>
<path d="M2.46103 8.21999L8.72964 11.1016L3.33078 11.4191C1.0789 11.5518 -0.541735 9.28534 0.316528 7.19913C0.330333 7.16461 0.344911 7.13009 0.359484 7.09634C1.22925 5.03314 3.97124 4.60669 5.45843 6.28026L9.19058 10.4772L2.46103 8.21999Z" fill="#FF914D"/>
<path d="M16.9034 23.6399C16.8689 23.6545 16.8344 23.6691 16.7999 23.6829C14.7136 24.5412 12.448 22.9205 12.5799 20.6686L12.9089 15.0627L16.0712 21.4172L13.6767 14.9461L17.7195 18.541C19.3923 20.0282 18.9658 22.7702 16.9034 23.6399Z" fill="#FF914D"/>
<path d="M23.6829 16.8005C23.6683 16.835 23.6537 16.8695 23.6399 16.9041C22.7694 18.9665 20.0274 19.393 18.5402 17.7201L14.808 13.5216L21.5376 15.7797L15.269 12.8981L20.6678 12.5805C22.9197 12.4479 24.5411 14.7143 23.6829 16.8005Z" fill="#FF914D"/>
<path d="M7.19877 23.6827C7.16426 23.6689 7.13048 23.6543 7.09597 23.6398C5.03353 22.77 4.60635 20.028 6.27992 18.5408L10.4777 14.8086L8.22039 21.5382L11.102 15.2704L11.4188 20.6684C11.5514 22.9203 9.28499 24.541 7.19877 23.6827Z" fill="#FF914D"/>
<path d="M9.05254 13.6773L5.45843 17.7201C3.97124 19.393 1.22925 18.9665 0.359484 16.9041C0.344911 16.8695 0.330333 16.835 0.316528 16.8005C-0.541735 14.7143 1.0789 12.4479 3.33078 12.5805L8.9367 12.9096L2.58222 16.0719L9.05254 13.6773Z" fill="#FF914D"/>
</svg>
