<svg width="29" height="28" viewBox="0 0 29 28" fill="none" xmlns="http://www.w3.org/2000/svg">
<g clip-path="url(#clip0_86_572)">
<mask id="mask0_86_572" style="mask-type:luminance" maskUnits="userSpaceOnUse" x="0" y="0" width="29" height="28">
<path d="M28.667 0H0.666992V28H28.667V0Z" fill="white"/>
</mask>
<g mask="url(#mask0_86_572)">
<path d="M14.667 0C22.397 0 28.667 6.27007 28.667 14C28.667 21.73 22.397 28 14.667 28C6.93707 28 0.666992 21.73 0.666992 14C0.666992 6.27007 6.93707 0 14.667 0Z" fill="white"/>
<path d="M14.667 28C6.94905 28 0.666992 21.7179 0.666992 14C0.666992 6.28206 6.94905 0 14.667 0C22.3849 0 28.667 6.28206 28.667 14C28.667 21.7179 22.3849 28 14.667 28ZM14.667 0.460224C7.20215 0.460224 1.12722 6.53516 1.12722 14C1.12722 21.4648 7.20215 27.5398 14.667 27.5398C22.1318 27.5398 28.2068 21.4648 28.2068 14C28.2068 6.53516 22.1318 0.460224 14.667 0.460224Z" fill="#FF914D"/>
<path d="M20.4835 18.3704L20.2405 17.6277C21.1483 17.3297 21.758 16.4907 21.758 15.5372V9.10039C21.758 7.8855 20.7723 6.89981 19.5574 6.89981H13.1207C12.1671 6.89981 11.3281 7.50496 11.0301 8.41269L10.292 8.16974C10.6955 6.94562 11.8324 6.125 13.1252 6.125H19.562C21.2079 6.125 22.542 7.46371 22.542 9.10499V15.5417C22.542 16.8346 21.7168 17.9715 20.4881 18.375L20.4835 18.3704Z" fill="#FF914D"/>
<path d="M18.6434 19.6875L18.4281 18.9688C19.3627 18.7086 20.0132 17.8709 20.0132 16.9361V10.7454C20.0132 9.57701 19.0283 8.62899 17.8142 8.62899H11.3823C10.4203 8.62899 9.57734 9.21983 9.28412 10.1017L8.54199 9.87241C8.93596 8.67751 10.0767 7.875 11.3823 7.875H17.8142C19.4589 7.875 20.792 9.16252 20.792 10.7411V16.9317C20.792 18.2016 19.9078 19.3347 18.6434 19.6875Z" fill="#FF914D"/>
<path d="M16.0973 21.875H9.73672C8.11031 21.875 6.79199 20.5521 6.79199 18.9303V12.5697C6.79199 10.9433 8.11486 9.625 9.73672 9.625H16.0973C17.7237 9.625 19.042 10.9479 19.042 12.5697V18.9303C19.042 20.5567 17.7191 21.875 16.0973 21.875ZM9.73672 10.3906C8.53617 10.3906 7.56217 11.3646 7.56217 12.5652V18.9258C7.56217 20.1263 8.53617 21.1003 9.73672 21.1003H16.0973C17.2978 21.1003 18.2718 20.1263 18.2718 18.9258V12.5652C18.2718 11.3646 17.2978 10.3906 16.0973 10.3906H9.73672Z" fill="#FF914D"/>
</g>
</g>
<defs>
<clipPath id="clip0_86_572">
<rect width="28" height="28" fill="white" transform="translate(0.666992)"/>
</clipPath>
</defs>
</svg>
