<svg width="29" height="28" viewBox="0 0 29 28" fill="none" xmlns="http://www.w3.org/2000/svg">
<g clip-path="url(#clip0_86_575)">
<mask id="mask0_86_575" style="mask-type:luminance" maskUnits="userSpaceOnUse" x="0" y="0" width="29" height="28">
<path d="M28.667 0H0.666992V28H28.667V0Z" fill="white"/>
</mask>
<g mask="url(#mask0_86_575)">
<path d="M14.667 0C22.397 0 28.667 6.27003 28.667 14C28.667 21.7299 22.397 28 14.667 28C6.93707 28 0.666992 21.7299 0.666992 14C0.666992 6.26539 6.93707 0 14.667 0Z" fill="white"/>
<path d="M14.667 28C6.94905 28 0.666992 21.7225 0.666992 14C0.666992 6.27747 6.94905 0 14.667 0C22.3849 0 28.667 6.28206 28.667 14C28.667 21.7179 22.3849 28 14.667 28ZM14.667 0.460224C7.20215 0.460224 1.12722 6.53516 1.12722 14C1.12722 21.4648 7.20215 27.5398 14.667 27.5398C22.1318 27.5398 28.2068 21.4648 28.2068 14C28.2068 6.53516 22.1318 0.460224 14.667 0.460224Z" fill="#FF914D"/>
<path d="M25.1627 15.1592C24.5461 20.4209 20.0787 24.4999 14.6648 24.4999C9.25092 24.4999 4.77915 20.4166 4.16699 15.1592H25.167H25.1627Z" fill="#FF914D"/>
<path opacity="0.6" d="M4.31306 12.2229H24.9393C25.0424 12.8059 25.094 13.4061 25.094 14.0193C25.094 14.11 25.094 14.2006 25.094 14.2913H4.16699C4.16699 14.2006 4.16699 14.11 4.16699 14.0193C4.16699 13.4061 4.21855 12.8059 4.32166 12.2229H4.31306Z" fill="#FF914D"/>
<path opacity="0.4" d="M5.1249 9.45044H23.9903C24.3041 10.1068 24.5533 10.7977 24.7295 11.5189H4.38574C4.56194 10.7977 4.81118 10.1068 5.1249 9.45044Z" fill="#FF914D"/>
<path opacity="0.2" d="M7.04334 6.67383H22.0243C22.6258 7.29569 23.1542 7.99092 23.5882 8.74228H5.47949C5.91769 7.98659 6.44186 7.29136 7.04334 6.67383Z" fill="#FF914D"/>
<path opacity="0.1" d="M14.841 3.5C17.4059 3.5 19.7516 4.42842 21.5732 5.96571H8.10449C9.92611 4.42409 12.2719 3.5 14.8367 3.5H14.841Z" fill="#FF914D"/>
</g>
</g>
<defs>
<clipPath id="clip0_86_575">
<rect width="28" height="28" fill="white" transform="translate(0.666992)"/>
</clipPath>
</defs>
</svg>
