<svg width="28" height="28" viewBox="0 0 28 28" fill="none" xmlns="http://www.w3.org/2000/svg">
<g clip-path="url(#clip0_86_567)">
<mask id="mask0_86_567" style="mask-type:luminance" maskUnits="userSpaceOnUse" x="0" y="0" width="28" height="28">
<path d="M28 0H0V28H28V0Z" fill="white"/>
</mask>
<g mask="url(#mask0_86_567)">
<path d="M14 0C21.73 0 28 6.27007 28 14C28 21.73 21.73 28 14 28C6.27007 28 0 21.73 0 14C0 6.27007 6.27007 0 14 0Z" fill="white"/>
<path d="M14 28C6.28206 28 0 21.7179 0 14C0 6.28206 6.28206 0 14 0C21.7179 0 28 6.28206 28 14C28 21.7179 21.7179 28 14 28ZM14 0.460224C6.53516 0.460224 0.460224 6.53516 0.460224 14C0.460224 21.4648 6.53516 27.5398 14 27.5398C21.4648 27.5398 27.5398 21.4648 27.5398 14C27.5398 6.53516 21.4648 0.460224 14 0.460224Z" fill="#FF914D"/>
<path d="M20.3604 11.375C19.397 11.375 18.9242 10.6611 18.5094 10.0307C18.0723 9.36771 17.7645 8.95978 17.1802 8.95978C16.5959 8.95978 16.2882 9.36307 15.851 10.026C15.4362 10.6564 14.9634 11.3704 14 11.3704C13.0366 11.3704 12.5638 10.6564 12.149 10.026C11.7118 9.36307 11.4041 8.95978 10.8198 8.95978C10.2355 8.95978 9.92771 9.36307 9.4906 10.026C9.07581 10.6564 8.603 11.3704 7.63958 11.3704C6.67616 11.3704 6.20336 10.6564 5.78852 10.026C5.35141 9.36307 5.04367 8.95978 4.45935 8.95978C4.16944 8.95978 3.9375 8.71872 3.9375 8.41737C3.9375 8.11606 4.16944 7.875 4.45935 7.875C5.63242 7.875 6.22121 8.76505 6.64939 9.41408C7.06418 10.0445 7.26044 10.2856 7.63958 10.2856C8.01872 10.2856 8.21048 10.0445 8.62978 9.41408C9.05796 8.76505 9.6467 7.875 10.8198 7.875C11.9928 7.875 12.5816 8.76505 13.0098 9.41408C13.4246 10.0445 13.6209 10.2856 14 10.2856C14.3791 10.2856 14.5709 10.0445 14.9902 9.41408C15.4184 8.76505 16.0072 7.875 17.1802 7.875C18.3533 7.875 18.942 8.76505 19.3702 9.41408C19.7851 10.0445 19.9813 10.2856 20.3604 10.2856C20.7396 10.2856 20.9314 10.0445 21.3506 9.41408C21.7788 8.76505 22.3676 7.875 23.5407 7.875C23.8306 7.875 24.0625 8.11606 24.0625 8.41737C24.0625 8.71872 23.8306 8.95978 23.5407 8.95978C22.9563 8.95978 22.6486 9.36307 22.2115 10.026C21.7966 10.6564 21.3238 11.3704 20.3604 11.3704V11.375Z" fill="#FF914D"/>
<path d="M20.3604 15.75C19.397 15.75 18.9242 15.038 18.5094 14.4092C18.0723 13.7434 17.7645 13.3412 17.1802 13.3412C16.5959 13.3412 16.2882 13.7434 15.851 14.4046C15.4362 15.0334 14.9634 15.7454 14 15.7454C13.0366 15.7454 12.5638 15.0334 12.149 14.4046C11.7118 13.7434 11.4041 13.3365 10.8198 13.3365C10.2355 13.3365 9.92771 13.7388 9.4906 14.3999C9.07581 15.0287 8.603 15.7408 7.63958 15.7408C6.67616 15.7408 6.20336 15.0287 5.78852 14.3999C5.35141 13.7388 5.04367 13.3319 4.45935 13.3319C4.16944 13.3319 3.9375 13.0915 3.9375 12.791C3.9375 12.4904 4.16944 12.25 4.45935 12.25C5.63242 12.25 6.22121 13.1377 6.64939 13.785C7.06418 14.4138 7.26044 14.6542 7.63958 14.6542C8.01872 14.6542 8.21048 14.4138 8.62978 13.785C9.05796 13.1377 9.6467 12.25 10.8198 12.25C11.9928 12.25 12.5816 13.1377 13.0098 13.785C13.4246 14.4138 13.6209 14.6542 14 14.6542C14.3791 14.6542 14.5709 14.4184 14.9902 13.785C15.4184 13.1377 16.0072 12.25 17.1802 12.25C18.3533 12.25 18.942 13.1377 19.3702 13.785C19.7851 14.4138 19.9813 14.6542 20.3604 14.6542C20.7396 14.6542 20.9314 14.4184 21.3506 13.785C21.7788 13.1377 22.3676 12.25 23.5407 12.25C23.8306 12.25 24.0625 12.4904 24.0625 12.791C24.0625 13.0915 23.8306 13.3319 23.5407 13.3319C22.9563 13.3319 22.6486 13.7341 22.2115 14.3953C21.7966 15.0241 21.3238 15.7361 20.3604 15.7361V15.75Z" fill="#FF914D"/>
<path d="M20.3604 20.125C19.397 20.125 18.9242 19.413 18.5094 18.7842C18.0723 18.123 17.7645 17.7162 17.1802 17.7162C16.5959 17.7162 16.2882 18.1184 15.851 18.7796C15.4362 19.4084 14.9634 20.1204 14 20.1204C13.0366 20.1204 12.5638 19.4084 12.149 18.7796C11.7118 18.1184 11.4041 17.7115 10.8198 17.7115C10.2355 17.7115 9.92771 18.1138 9.4906 18.7749C9.07581 19.4037 8.603 20.1158 7.63958 20.1158C6.67616 20.1158 6.20336 19.4037 5.78852 18.7749C5.35141 18.1138 5.04367 17.7069 4.45935 17.7069C4.16944 17.7069 3.9375 17.4665 3.9375 17.166C3.9375 16.8654 4.16944 16.625 4.45935 16.625C5.63242 16.625 6.22121 17.5127 6.64939 18.16C7.06418 18.7888 7.26044 19.0292 7.63958 19.0292C8.01872 19.0292 8.21048 18.7888 8.62978 18.16C9.05796 17.5127 9.6467 16.625 10.8198 16.625C11.9928 16.625 12.5816 17.5127 13.0098 18.16C13.4246 18.7888 13.6209 19.0292 14 19.0292C14.3791 19.0292 14.5709 18.7934 14.9902 18.16C15.4184 17.5127 16.0072 16.625 17.1802 16.625C18.3533 16.625 18.942 17.5127 19.3702 18.16C19.7851 18.7888 19.9813 19.0292 20.3604 19.0292C20.7396 19.0292 20.9314 18.7934 21.3506 18.16C21.7788 17.5127 22.3676 16.625 23.5407 16.625C23.8306 16.625 24.0625 16.8654 24.0625 17.166C24.0625 17.4665 23.8306 17.7069 23.5407 17.7069C22.9563 17.7069 22.6486 18.1091 22.2115 18.7703C21.7966 19.3991 21.3238 20.1111 20.3604 20.1111V20.125Z" fill="#FF914D"/>
</g>
</g>
<defs>
<clipPath id="clip0_86_567">
<rect width="28" height="28" fill="white"/>
</clipPath>
</defs>
</svg>
